<?xml version="1.0" encoding="UTF-8" ?>
<!DOCTYPE svg PUBLIC "-//W3C//DTD SVG 1.1//EN" "http://www.w3.org/Graphics/SVG/1.1/DTD/svg11.dtd">
<svg width="588pt" height="179pt" viewBox="0 0 588 179" version="1.1" xmlns="http://www.w3.org/2000/svg">
<path fill="#e79321" d=" M 101.89 31.75 C 102.67 40.19 105.10 48.44 105.38 56.91 C 102.00 56.37 98.56 56.41 95.15 56.59 C 96.66 49.29 98.60 42.02 101.19 35.04 C 101.37 34.22 101.72 32.57 101.89 31.75 Z" />
<path fill="#e79321" d=" M 69.03 42.00 C 74.32 47.72 80.55 52.66 85.00 59.10 C 82.13 60.39 79.31 61.85 76.73 63.65 C 73.60 56.65 71.33 49.30 69.03 42.00 Z" />
<path fill="#e79321" d=" M 113.12 58.41 C 119.01 53.41 124.11 47.54 130.27 42.84 C 128.06 49.72 124.63 56.11 122.13 62.88 C 121.33 62.75 119.73 62.49 118.94 62.36 C 118.45 62.07 117.49 61.48 117.01 61.19 C 115.88 60.05 114.43 59.31 113.12 58.41 Z" />
<path fill="#103852" fill-rule="evenodd" d=" M 172.83 49.54 C 178.72 49.45 184.62 49.53 190.52 49.51 C 190.13 50.75 189.74 52.00 189.35 53.24 C 187.25 52.65 185.10 52.26 182.93 52.02 C 182.94 59.19 182.43 66.42 183.56 73.54 C 181.89 73.53 180.22 73.54 178.56 73.55 C 179.64 66.44 179.07 59.23 179.17 52.07 C 176.63 52.32 174.11 52.70 171.63 53.24 C 172.03 52.00 172.43 50.77 172.83 49.54 Z" />
<path fill="#103852" fill-rule="evenodd" d=" M 244.40 50.54 C 248.16 48.79 252.56 48.93 256.50 49.97 C 256.63 50.97 256.89 52.97 257.03 53.97 C 253.62 52.56 249.56 51.12 246.05 53.04 C 240.49 56.26 240.11 65.15 244.72 69.32 C 247.44 71.69 251.25 70.84 254.45 70.18 C 254.50 67.30 254.34 64.41 253.72 61.58 C 255.39 61.54 257.06 61.50 258.74 61.46 C 258.13 65.14 258.03 68.88 258.36 72.59 C 252.92 74.06 246.37 74.92 241.64 71.17 C 235.20 65.84 236.89 54.07 244.40 50.54 Z" />
<path fill="#103852" fill-rule="evenodd" d=" M 214.95 54.59 C 218.33 54.56 221.71 54.56 225.10 54.60 C 224.73 55.56 224.37 56.52 224.01 57.48 C 222.16 57.11 220.31 56.79 218.45 56.53 C 218.42 58.62 218.41 60.70 218.40 62.79 C 220.45 62.79 222.51 62.78 224.56 62.76 C 224.02 63.75 223.48 64.73 222.94 65.72 C 221.44 65.39 219.93 65.08 218.43 64.78 C 218.40 67.03 218.39 69.28 218.40 71.53 C 221.13 71.27 223.85 70.82 226.47 69.98 C 225.89 71.16 225.34 72.34 224.78 73.52 C 221.54 73.52 218.30 73.52 215.06 73.52 C 215.65 67.23 215.71 60.87 214.95 54.59 Z" />
<path fill="#103852" fill-rule="evenodd" d=" M 285.42 54.53 C 292.81 52.65 298.83 61.31 295.80 67.90 C 293.24 74.91 282.33 75.85 278.61 69.41 C 274.92 63.74 278.43 55.14 285.42 54.53 Z
    M 284.22 57.15 C 289.18 54.92 293.86 60.22 293.36 65.00 C 293.57 69.14 289.10 72.59 285.16 71.20 C 279.48 69.20 278.25 59.56 284.22 57.15 Z" />
<path fill="#103852" fill-rule="evenodd" d=" M 300.48 54.53 C 303.82 54.72 308.47 54.01 310.42 57.46 C 311.70 59.80 309.96 62.04 308.28 63.54 C 310.87 64.64 312.58 67.55 311.33 70.28 C 309.32 74.18 304.21 73.32 300.58 73.59 C 301.10 67.25 301.23 60.85 300.48 54.53 Z M 303.88 56.21 C 305.41 56.71 307.63 57.22 307.69 59.23 C 308.00 61.42 305.79 62.43 304.16 63.17 C 303.97 60.85 303.88 58.53 303.88 56.21 Z M 303.91 64.00 C 305.91 64.47 308.84 65.40 308.54 68.01 C 308.86 70.68 305.80 71.20 303.92 71.87 C 303.89 69.25 303.88 66.62 303.91 64.00 Z" />
<path fill="#103852" fill-rule="evenodd" d=" M 194.57 54.57 C 195.52 54.57 197.43 54.56 198.38 54.56 C 198.12 57.25 198.02 59.96 198.04 62.67 C 200.68 62.67 203.33 62.66 205.98 62.65 C 205.96 59.95 205.85 57.25 205.56 54.56 C 206.53 54.57 208.47 54.58 209.44 54.58 C 208.66 60.87 208.70 67.26 209.43 73.55 C 208.47 73.55 206.55 73.54 205.59 73.54 C 205.87 70.72 205.98 67.90 205.96 65.07 C 203.32 65.07 200.67 65.08 198.03 65.07 C 198.02 67.89 198.13 70.71 198.41 73.52 C 197.45 73.52 195.54 73.53 194.58 73.54 C 195.17 67.23 195.26 60.87 194.57 54.57 Z" />
<path fill="#103852" fill-rule="evenodd" d=" M 264.55 54.51 C 265.53 54.53 267.47 54.55 268.44 54.56 C 267.71 60.20 267.97 65.89 267.95 71.55 C 270.51 71.17 273.07 70.67 275.58 70.01 C 275.08 71.16 274.60 72.31 274.12 73.46 C 270.95 73.51 267.77 73.50 264.60 73.54 C 265.18 67.22 265.34 60.82 264.55 54.51 Z" />
<path fill="#103852" fill-rule="evenodd" d=" M 312.58 73.57 C 316.33 67.41 319.03 60.70 322.28 54.28 C 325.40 60.75 328.14 67.43 331.93 73.54 C 330.50 73.53 329.08 73.53 327.67 73.52 C 327.06 71.50 326.34 69.53 325.49 67.61 C 323.20 67.63 320.92 67.63 318.65 67.64 C 318.03 69.57 317.45 71.52 316.96 73.48 C 315.50 73.51 314.04 73.53 312.58 73.57 Z M 319.89 65.31 C 320.56 63.42 321.30 61.56 322.08 59.72 C 322.86 61.53 323.60 63.36 324.35 65.19 C 322.86 65.23 321.37 65.27 319.89 65.31 Z" />
<path fill="#103852" fill-rule="evenodd" d=" M 335.59 54.58 C 336.56 54.58 338.50 54.57 339.47 54.57 C 338.72 60.22 338.82 65.94 339.17 71.62 C 341.62 71.12 344.07 70.60 346.50 69.97 C 346.04 71.13 345.58 72.30 345.14 73.47 C 341.94 73.52 338.74 73.52 335.55 73.57 C 336.22 67.27 336.32 60.88 335.59 54.58 Z" />
<path fill="#103852" fill-rule="evenodd" d=" M 85.00 59.10 C 88.26 57.84 91.69 57.05 95.15 56.59 C 98.56 56.41 102.00 56.37 105.38 56.91 C 109.40 57.93 113.32 59.28 117.01 61.19 C 117.49 61.48 118.45 62.07 118.94 62.36 C 119.68 62.81 120.43 63.26 121.18 63.71 C 123.03 65.91 125.15 67.85 127.39 69.65 C 128.12 70.87 128.88 72.07 129.65 73.27 C 130.30 74.49 130.98 75.70 131.62 76.92 C 133.10 79.91 134.07 83.13 134.86 86.36 C 135.60 90.10 135.53 93.95 135.28 97.73 C 134.64 100.84 133.90 103.95 132.79 106.93 C 131.31 110.28 129.51 113.51 127.24 116.39 C 125.84 117.98 124.08 119.33 123.15 121.30 C 122.44 121.72 121.71 122.14 120.99 122.56 C 118.50 123.93 116.16 125.55 113.58 126.77 C 111.05 127.82 108.41 128.64 105.75 129.31 C 101.98 129.80 98.16 129.80 94.36 129.60 C 91.89 129.32 89.46 128.73 87.09 128.01 C 82.09 126.77 78.25 123.29 74.41 120.18 L 73.97 119.97 C 73.39 119.42 72.24 118.32 71.66 117.77 C 69.62 115.66 68.02 113.17 66.11 110.94 C 65.75 110.48 65.03 109.55 64.67 109.08 C 64.77 105.73 63.05 102.73 62.53 99.48 C 62.17 95.39 62.11 91.27 62.46 87.18 C 63.07 83.37 64.75 79.86 65.82 76.17 C 66.17 75.70 66.87 74.75 67.22 74.28 C 67.55 73.75 68.23 72.68 68.56 72.15 C 68.97 71.32 69.32 70.46 69.62 69.59 C 72.59 68.52 74.11 65.32 76.73 63.65 C 79.31 61.85 82.13 60.39 85.00 59.10 Z" />
<path fill="#ffffff" d=" M 105.27 62.16 C 105.99 61.24 107.34 61.28 108.16 62.03 C 106.95 64.71 104.54 66.65 103.48 69.42 C 102.08 73.09 102.00 77.14 102.33 81.02 C 102.39 81.91 102.86 82.55 103.72 82.95 C 107.18 78.84 110.77 74.59 112.04 69.22 C 112.58 67.95 112.89 63.29 114.84 66.07 C 114.64 69.38 113.71 72.59 113.48 75.90 C 114.15 74.76 114.77 73.58 115.51 72.48 C 117.26 71.87 118.71 73.12 120.08 74.00 C 119.00 75.80 117.37 77.11 115.68 78.31 C 119.04 77.22 122.42 75.87 126.00 75.85 C 126.35 76.41 127.05 77.55 127.40 78.12 C 124.25 78.58 120.93 78.63 118.04 80.12 C 114.64 81.89 112.06 84.78 109.38 87.45 C 109.36 87.93 109.32 88.89 109.30 89.37 C 114.38 89.15 119.61 88.68 124.12 86.12 C 126.02 85.40 127.91 83.22 129.98 84.81 C 127.29 87.19 124.09 88.93 121.52 91.46 C 122.73 91.09 123.94 90.72 125.15 90.33 C 125.60 90.78 126.51 91.69 126.97 92.15 C 126.93 92.87 126.86 94.30 126.82 95.02 C 125.08 94.96 123.35 94.85 121.62 94.69 C 124.84 96.93 130.33 97.91 130.61 102.59 C 128.05 102.22 126.41 100.03 124.26 98.83 C 119.88 96.17 114.52 96.62 109.61 96.72 C 109.52 97.15 109.34 98.02 109.26 98.46 C 114.18 103.05 120.12 106.44 126.82 107.61 C 126.67 108.06 126.36 108.98 126.21 109.43 C 122.85 108.95 119.50 108.35 116.15 107.82 C 117.90 108.94 120.85 110.34 119.13 112.88 C 117.24 115.77 114.81 111.96 113.73 110.31 C 114.70 113.73 116.32 117.22 115.81 120.84 C 115.34 121.19 114.40 121.88 113.94 122.22 C 113.23 118.69 113.29 114.85 111.30 111.71 C 109.40 108.72 106.98 106.01 104.15 103.86 C 103.73 103.83 102.87 103.76 102.45 103.73 C 102.84 107.47 102.82 111.32 104.17 114.89 C 105.17 118.09 107.31 120.81 108.15 124.07 C 104.32 123.06 103.25 118.49 100.71 115.86 C 100.94 117.24 101.22 118.62 101.33 120.02 C 100.35 120.98 99.18 121.63 97.84 121.95 C 96.17 120.25 97.01 118.01 97.18 115.96 C 95.54 119.00 94.13 122.26 91.68 124.77 C 90.85 124.63 88.97 125.16 89.43 123.70 C 92.10 120.26 94.99 116.63 95.10 112.04 C 95.11 109.09 96.23 105.42 93.88 103.10 C 89.36 108.31 85.38 114.19 84.33 121.19 C 83.94 121.03 83.17 120.71 82.78 120.55 C 82.55 117.21 83.77 113.97 83.91 110.64 C 83.31 111.66 82.74 112.70 82.22 113.76 C 80.56 113.89 78.15 114.11 77.75 111.96 C 78.37 110.12 80.21 109.25 81.59 108.08 C 78.73 109.06 75.86 110.11 72.84 110.48 C 71.22 111.01 70.40 109.56 69.78 108.38 C 73.18 107.69 76.86 107.76 79.92 105.92 C 83.24 104.08 85.72 101.16 88.36 98.51 C 88.11 97.52 87.62 95.54 87.37 94.54 C 87.40 95.20 87.46 96.52 87.49 97.18 C 80.58 96.65 74.07 99.35 68.32 102.91 C 68.29 102.41 68.25 101.41 68.22 100.91 C 70.68 98.72 73.62 97.15 76.07 94.94 C 74.70 95.27 73.35 95.63 72.00 96.01 C 71.16 94.68 69.54 93.17 70.55 91.46 C 72.36 91.20 74.17 91.44 75.98 91.56 C 72.70 89.49 66.99 88.51 66.91 83.79 C 69.93 84.44 71.84 87.12 74.62 88.28 C 78.75 90.05 83.33 89.71 87.71 89.60 C 88.04 88.94 88.37 88.28 88.70 87.62 C 87.00 87.60 86.00 86.09 84.77 85.14 C 80.86 81.66 75.75 79.92 70.72 78.76 C 70.90 78.34 71.25 77.50 71.43 77.09 C 74.73 77.24 77.94 78.08 81.22 78.40 C 80.05 77.62 78.85 76.88 77.67 76.12 C 78.14 74.68 78.14 72.60 79.96 72.18 C 81.76 72.84 82.60 74.71 83.77 76.09 C 82.92 72.21 79.56 67.24 83.06 63.90 C 84.47 67.17 84.00 70.99 85.83 74.11 C 87.73 77.61 90.78 80.25 93.58 83.00 C 93.90 82.77 94.52 82.30 94.83 82.07 C 95.11 75.11 92.65 68.49 88.95 62.71 C 89.66 62.68 90.38 62.69 91.10 62.73 C 93.24 65.23 94.78 68.21 97.16 70.53 C 96.72 69.25 96.25 67.98 95.77 66.72 C 96.81 65.87 97.81 64.91 99.09 64.41 C 101.76 65.41 100.20 68.46 100.32 70.49 C 101.76 67.60 103.02 64.53 105.27 62.16 Z" />
<path fill="#e79321" d=" M 49.00 62.16 C 55.51 64.72 62.37 66.25 68.93 68.72 C 68.84 69.57 68.66 71.29 68.56 72.15 C 68.23 72.68 67.55 73.75 67.22 74.28 C 66.38 75.61 64.37 76.50 63.20 75.01 C 58.36 70.83 53.53 66.66 49.00 62.16 Z" />
<path fill="#e79321" d=" M 128.34 67.87 C 134.84 66.31 140.92 63.41 147.47 61.97 C 141.95 66.70 137.23 72.29 131.62 76.92 C 130.98 75.70 130.30 74.49 129.65 73.27 C 129.17 71.45 127.92 69.85 128.34 67.87 Z" />
<path fill="#103852" fill-rule="evenodd" d=" M 174.42 80.30 C 178.79 80.30 183.16 80.30 187.53 80.31 C 186.98 81.53 186.45 82.75 185.92 83.97 C 183.59 83.43 181.24 83.04 178.87 82.74 C 178.84 85.39 178.84 88.04 178.86 90.69 C 181.48 90.70 184.10 90.71 186.72 90.73 C 186.00 91.96 185.28 93.19 184.56 94.42 C 182.68 93.95 180.79 93.54 178.88 93.20 C 178.86 96.03 178.86 98.86 178.83 101.69 C 182.29 101.53 185.74 101.01 188.98 99.76 C 188.34 101.27 187.71 102.79 187.09 104.32 C 182.89 104.33 178.69 104.32 174.49 104.35 C 175.54 96.39 175.48 88.26 174.42 80.30 Z" />
<path fill="#103852" fill-rule="evenodd" d=" M 381.63 80.29 C 383.33 80.30 385.04 80.29 386.75 80.29 C 385.54 87.40 386.19 94.65 386.13 101.83 C 389.38 101.42 392.58 100.72 395.71 99.75 C 395.05 101.26 394.41 102.77 393.77 104.28 C 389.74 104.35 385.71 104.34 381.67 104.33 C 382.71 96.39 382.74 88.23 381.63 80.29 Z" />
<path fill="#103852" fill-rule="evenodd" d=" M 348.71 84.66 C 350.30 80.79 356.91 80.65 358.10 84.89 C 358.85 87.47 356.54 89.17 354.79 90.53 C 356.61 92.64 358.54 94.64 360.42 96.68 C 361.76 94.80 363.35 92.97 363.71 90.61 C 362.92 90.42 361.35 90.05 360.56 89.86 C 363.47 88.83 367.25 88.55 370.09 89.87 C 365.92 90.83 363.66 94.67 361.18 97.78 C 362.62 99.32 363.86 101.20 365.83 102.13 C 366.98 101.81 369.28 101.16 370.43 100.84 C 369.17 102.70 367.52 104.89 365.00 104.79 C 362.36 104.41 360.89 101.91 359.15 100.19 C 357.04 102.06 355.05 104.76 351.94 104.76 C 348.22 105.17 344.60 101.78 345.08 98.00 C 345.05 94.59 348.23 92.70 350.64 90.93 C 349.40 89.13 347.56 86.97 348.71 84.66 Z M 351.23 84.27 C 352.02 82.10 355.85 82.81 355.80 85.14 C 356.41 87.03 354.73 88.38 353.84 89.82 C 352.37 88.37 350.34 86.59 351.23 84.27 Z M 348.10 97.05 C 347.95 94.67 350.29 93.41 351.72 91.91 C 354.00 94.19 356.20 96.55 358.29 99.00 C 356.64 100.17 355.09 101.89 352.90 101.83 C 350.22 102.19 347.90 99.65 348.10 97.05 Z" />
<path fill="#e79321" d=" M 88.63 92.94 C 89.53 89.29 91.28 85.39 95.11 84.07 C 100.78 81.54 107.70 85.93 108.48 91.91 C 109.08 96.45 106.07 101.24 101.64 102.49 C 98.07 103.20 93.83 102.61 91.37 99.68 C 89.66 97.84 89.34 95.25 88.63 92.94 Z " />
<path fill="#103852" fill-rule="evenodd" d=" M 193.08 85.31 C 196.59 85.57 200.46 85.30 203.51 87.38 C 208.56 90.69 208.61 99.28 203.53 102.59 C 200.44 104.73 196.49 104.24 192.93 104.34 C 193.86 98.04 193.57 91.63 193.08 85.31 Z M 196.45 87.27 C 200.58 87.42 204.47 90.62 204.19 94.99 C 204.31 99.26 200.46 102.13 196.52 102.47 C 196.32 97.40 196.40 92.34 196.45 87.27 Z" />
<path fill="#103852" fill-rule="evenodd" d=" M 211.90 85.41 C 213.18 85.40 214.47 85.38 215.77 85.36 C 215.31 90.15 214.75 95.13 215.98 99.83 C 217.47 103.37 223.64 102.94 224.04 98.90 C 224.59 94.42 224.33 89.86 223.77 85.39 C 224.73 85.39 226.66 85.38 227.62 85.38 C 226.95 91.69 227.05 98.07 227.64 104.38 C 226.86 104.36 225.29 104.32 224.50 104.30 C 224.52 103.85 224.56 102.94 224.58 102.49 C 221.41 104.50 216.30 105.98 213.79 102.22 C 211.19 97.03 213.13 90.94 211.90 85.41 Z" />
<path fill="#103852" fill-rule="evenodd" d=" M 238.04 86.03 C 240.95 84.68 244.24 85.30 247.30 85.70 C 247.29 86.76 247.29 87.82 247.29 88.88 C 244.72 87.77 241.73 86.75 239.02 88.04 C 234.25 90.83 234.13 99.28 239.24 101.79 C 242.18 103.15 245.22 101.46 247.81 100.11 C 247.72 101.20 247.63 102.29 247.55 103.38 C 243.86 104.68 239.40 105.35 236.05 102.83 C 230.18 98.90 231.54 88.57 238.04 86.03 Z" />
<path fill="#103852" fill-rule="evenodd" d=" M 249.88 104.26 C 253.48 98.09 256.28 91.49 259.40 85.08 C 262.57 91.52 265.33 98.19 269.08 104.32 C 267.67 104.32 266.26 104.33 264.86 104.33 C 264.22 102.35 263.54 100.37 262.82 98.42 C 260.49 98.49 258.08 98.11 255.80 98.69 C 255.04 100.49 254.59 102.41 254.12 104.30 C 252.70 104.30 251.29 104.28 249.88 104.26 Z M 259.23 90.41 C 260.01 92.24 260.81 94.06 261.61 95.88 C 260.06 95.94 258.50 96.01 256.96 96.07 C 257.71 94.18 258.48 92.30 259.23 90.41 Z" />
<path fill="#103852" fill-rule="evenodd" d=" M 268.72 85.41 C 273.34 85.38 277.96 85.40 282.59 85.36 C 282.27 86.34 281.97 87.32 281.66 88.30 C 280.00 87.93 278.34 87.59 276.68 87.27 C 276.74 92.95 276.29 98.68 277.13 104.33 C 276.19 104.33 274.29 104.35 273.34 104.36 C 273.91 98.70 273.71 93.01 273.68 87.33 C 271.70 87.61 269.74 87.92 267.78 88.28 C 268.02 87.56 268.48 86.13 268.72 85.41 Z" />
<path fill="#103852" fill-rule="evenodd" d=" M 301.36 85.52 C 304.46 84.77 308.07 85.15 310.45 87.44 C 314.59 91.22 314.64 98.69 310.20 102.26 C 305.84 106.18 297.88 105.00 295.32 99.56 C 292.45 94.29 295.29 86.78 301.36 85.52 Z M 300.32 88.39 C 303.33 86.50 307.64 87.63 309.18 90.86 C 311.86 94.79 310.19 101.60 304.98 102.21 C 297.84 103.26 294.45 91.98 300.32 88.39 Z" />
<path fill="#103852" fill-rule="evenodd" d=" M 316.21 85.44 C 317.63 85.42 319.06 85.40 320.49 85.39 C 323.78 90.30 327.41 94.96 330.78 99.82 C 330.78 94.99 330.91 90.16 330.33 85.36 C 331.19 85.36 332.93 85.37 333.80 85.37 C 333.22 91.66 333.14 98.02 333.79 104.31 C 332.96 104.31 331.30 104.33 330.47 104.33 C 327.52 99.90 324.22 95.71 321.09 91.40 C 321.10 95.72 320.97 100.06 321.48 104.36 C 320.62 104.34 318.91 104.31 318.06 104.30 C 318.65 98.90 318.45 93.46 318.47 88.04 C 317.70 87.18 316.96 86.31 316.21 85.44 Z" />
<path fill="#103852" fill-rule="evenodd" d=" M 403.62 85.37 C 407.04 85.41 410.47 85.40 413.90 85.37 C 413.44 86.34 412.98 87.31 412.53 88.28 C 410.74 87.90 408.94 87.58 407.14 87.31 C 407.11 89.40 407.09 91.48 407.07 93.57 C 409.08 93.60 411.10 93.60 413.12 93.60 C 412.64 94.57 412.17 95.53 411.70 96.50 C 410.17 96.16 408.67 95.84 407.15 95.52 C 407.12 97.79 407.12 100.05 407.13 102.32 C 409.81 102.04 412.48 101.63 415.05 100.79 C 414.52 101.97 414.02 103.15 413.50 104.33 C 410.21 104.32 406.93 104.33 403.65 104.34 C 404.43 98.05 404.40 91.66 403.62 85.37 Z" />
<path fill="#103852" fill-rule="evenodd" d=" M 439.74 85.37 C 443.19 85.55 446.92 85.30 450.00 87.15 C 454.77 90.13 455.54 97.58 451.59 101.55 C 448.59 104.80 443.73 104.21 439.73 104.36 C 440.56 98.07 440.55 91.66 439.74 85.37 Z M 443.27 87.22 C 447.36 87.49 451.38 90.58 450.92 95.04 C 451.18 99.33 447.24 102.03 443.40 102.54 C 443.03 97.44 443.23 92.33 443.27 87.22 Z" />
<path fill="#103852" fill-rule="evenodd" d=" M 459.04 85.37 C 462.43 85.39 465.82 85.42 469.21 85.38 C 468.77 86.35 468.33 87.31 467.90 88.28 C 466.10 87.86 464.29 87.54 462.47 87.31 C 462.41 89.38 462.39 91.45 462.37 93.53 C 464.44 93.58 466.51 93.62 468.59 93.67 C 468.03 94.63 467.47 95.59 466.93 96.55 C 465.43 96.20 463.92 95.87 462.42 95.56 C 462.41 97.81 462.39 100.07 462.39 102.32 C 465.11 102.06 467.80 101.60 470.42 100.78 C 469.89 101.95 469.37 103.12 468.87 104.30 C 465.60 104.34 462.33 104.34 459.06 104.30 C 459.68 98.01 459.65 91.66 459.04 85.37 Z" />
<path fill="#103852" fill-rule="evenodd" d=" M 474.21 85.33 C 477.70 85.47 482.28 84.87 484.47 88.29 C 486.19 91.28 484.27 94.50 481.55 95.98 C 483.56 98.92 485.81 101.70 488.20 104.36 C 487.03 104.33 485.87 104.31 484.71 104.30 C 482.07 101.70 479.74 98.81 477.56 95.82 C 477.60 98.66 477.74 101.49 477.96 104.31 C 476.72 104.33 475.48 104.34 474.24 104.36 C 474.91 98.04 474.88 91.64 474.21 85.33 Z M 477.67 86.98 C 479.56 87.62 482.11 88.52 481.93 91.00 C 482.00 93.42 479.59 94.53 477.61 95.05 C 477.57 92.36 477.58 89.66 477.67 86.98 Z" />
<path fill="#103852" fill-rule="evenodd" d=" M 490.72 90.05 C 490.91 85.46 496.16 84.56 499.76 85.42 C 499.87 86.59 499.99 87.76 500.11 88.93 C 498.27 87.57 496.16 87.10 494.06 88.05 C 493.05 91.71 496.71 93.19 498.91 95.19 C 501.23 97.08 501.28 101.01 498.99 102.94 C 496.80 105.15 493.45 104.49 490.69 104.15 C 490.63 103.20 490.52 101.31 490.46 100.37 C 492.35 102.39 496.46 103.33 497.55 99.99 C 497.50 95.47 490.12 94.95 490.72 90.05 Z" />
<path fill="#103852" fill-rule="evenodd" d=" M 516.44 85.41 C 517.74 85.40 519.06 85.39 520.38 85.38 C 519.57 91.66 519.65 98.06 520.38 104.35 C 519.41 104.34 517.46 104.33 516.48 104.33 C 516.83 101.51 516.96 98.67 516.96 95.83 C 514.24 95.81 511.52 95.81 508.81 95.82 C 508.84 98.67 509.04 101.51 509.40 104.34 C 508.43 104.33 506.48 104.33 505.51 104.33 C 506.15 98.04 506.17 91.68 505.48 85.40 C 506.45 85.39 508.38 85.38 509.34 85.37 C 509.04 88.06 508.85 90.75 508.78 93.45 C 511.50 93.48 514.23 93.48 516.96 93.47 C 516.95 90.78 516.83 88.08 516.44 85.41 Z" />
<path fill="#103852" fill-rule="evenodd" d=" M 534.24 85.35 C 536.87 85.45 539.57 85.17 542.14 85.86 C 545.69 87.14 546.29 92.29 543.89 94.89 C 542.22 96.52 539.70 96.44 537.57 96.88 C 537.65 99.36 537.86 101.83 538.20 104.29 C 537.22 104.31 535.27 104.35 534.29 104.37 C 534.96 98.06 534.92 91.66 534.24 85.35 Z M 537.73 86.90 C 538.49 87.16 540.02 87.69 540.78 87.95 C 542.93 89.54 542.06 92.37 541.35 94.48 C 540.11 94.77 538.89 95.06 537.66 95.35 C 537.63 92.54 537.63 89.72 537.73 86.90 Z " />
<path fill="#e79321" d=" M 134.86 86.36 C 141.48 87.51 147.81 89.91 154.43 91.03 C 148.07 93.32 141.96 96.45 135.28 97.73 C 135.53 93.95 135.60 90.10 134.86 86.36 Z" />
<path fill="#103852" fill-rule="evenodd" d=" M 286.29 85.36 C 287.25 85.37 289.18 85.38 290.14 85.38 C 289.42 91.65 289.39 98.02 290.17 104.28 C 289.21 104.31 287.28 104.36 286.31 104.38 C 286.94 98.07 287.02 91.67 286.29 85.36 Z" />
<path fill="#103852" fill-rule="evenodd" d=" M 426.39 85.13 C 429.90 91.42 432.25 98.32 436.26 104.34 C 434.82 104.32 433.39 104.31 431.97 104.30 C 431.31 102.31 430.59 100.34 429.82 98.39 C 427.51 98.41 425.19 98.43 422.89 98.45 C 422.27 100.39 421.69 102.34 421.19 104.32 C 419.79 104.32 418.38 104.32 416.99 104.32 C 420.46 98.09 423.45 91.61 426.39 85.13 Z M 423.99 96.09 C 424.72 94.25 425.53 92.43 426.49 90.69 C 427.23 92.42 427.95 94.16 428.69 95.89 C 427.12 95.96 425.55 96.03 423.99 96.09 Z" />
<path fill="#103852" fill-rule="evenodd" d=" M 525.77 85.38 C 526.73 85.38 528.65 85.38 529.60 85.38 C 528.97 91.69 528.98 98.07 529.62 104.37 C 528.65 104.36 526.72 104.34 525.75 104.32 C 526.46 98.04 526.54 91.65 525.77 85.38 Z" />
<path fill="#e79321" d=" M 37.21 93.98 C 45.61 91.70 53.75 88.12 62.46 87.18 C 62.11 91.27 62.17 95.39 62.53 99.48 C 53.94 98.38 45.74 95.41 37.21 93.98 Z" />
<path fill="#e79321" d=" M 132.79 106.93 C 139.60 110.48 144.79 116.35 151.10 120.64 C 143.06 119.89 135.04 118.43 127.24 116.39 C 129.51 113.51 131.31 110.28 132.79 106.93 Z" />
<path fill="#e79321" d=" M 48.80 122.99 C 53.70 118.43 58.36 113.61 63.10 108.88 C 64.12 109.54 65.12 110.23 66.11 110.94 C 68.02 113.17 69.62 115.66 71.66 117.77 C 70.62 117.30 69.50 117.07 68.42 117.57 C 61.87 119.35 55.57 122.15 48.80 122.99 Z" />
<path fill="#103852" fill-rule="evenodd" d=" M 173.58 111.25 C 177.89 111.30 182.20 111.28 186.52 111.29 C 185.98 112.50 185.45 113.72 184.93 114.94 C 182.61 114.40 180.26 114.02 177.90 113.73 C 177.89 116.37 177.88 119.00 177.86 121.64 C 180.49 121.67 183.11 121.69 185.74 121.72 C 185.02 122.97 184.31 124.22 183.60 125.48 C 181.71 124.97 179.80 124.52 177.87 124.18 C 177.77 127.89 177.93 131.62 178.56 135.29 C 176.89 135.30 175.22 135.31 173.55 135.32 C 174.52 127.36 174.61 119.21 173.58 111.25 Z" />
<path fill="#103852" fill-rule="evenodd" d=" M 213.76 116.36 C 215.06 116.36 216.36 116.35 217.67 116.35 C 217.17 120.90 216.81 125.58 217.66 130.11 C 218.48 133.81 224.23 134.38 225.68 130.88 C 226.73 126.13 226.14 121.16 225.66 116.36 C 226.63 116.35 228.56 116.33 229.52 116.32 C 228.83 122.69 228.99 129.13 229.53 135.51 C 228.04 135.56 226.84 135.04 225.94 133.96 C 222.65 135.67 217.44 136.74 215.39 132.69 C 213.29 127.52 214.97 121.73 213.76 116.36 Z" />
<path fill="#103852" fill-rule="evenodd" d=" M 233.70 116.34 C 235.04 116.30 236.39 116.32 237.74 116.39 C 241.46 120.97 244.70 125.95 248.22 130.70 C 248.27 125.91 248.44 121.10 247.78 116.34 C 248.67 116.35 250.46 116.37 251.36 116.38 C 250.55 122.65 250.57 129.05 251.32 135.33 C 250.45 135.31 248.73 135.27 247.87 135.25 C 244.96 130.82 241.65 126.68 238.57 122.37 C 238.47 126.71 238.46 131.06 238.86 135.38 C 238.00 135.35 236.30 135.28 235.44 135.25 C 236.19 129.91 235.86 124.52 235.92 119.15 C 235.18 118.21 234.44 117.28 233.70 116.34 Z" />
<path fill="#103852" fill-rule="evenodd" d=" M 256.56 116.29 C 260.24 116.54 264.38 116.20 267.48 118.60 C 272.35 122.17 272.03 130.71 266.82 133.84 C 263.71 135.53 260.01 135.22 256.59 135.36 C 257.28 129.03 257.43 122.61 256.56 116.29 Z M 260.10 118.25 C 263.80 118.45 267.55 120.95 267.74 124.93 C 268.56 129.51 264.50 133.21 260.16 133.43 C 259.97 128.37 260.07 123.31 260.10 118.25 Z" />
<path fill="#103852" fill-rule="evenodd" d=" M 290.84 116.39 C 295.47 116.34 300.10 116.34 304.74 116.38 C 304.49 117.32 304.24 118.27 304.00 119.21 C 302.27 118.84 300.53 118.57 298.78 118.37 C 298.87 124.02 298.47 129.69 299.31 135.30 C 298.35 135.30 296.42 135.29 295.46 135.29 C 296.10 129.67 295.86 123.99 295.83 118.34 C 293.88 118.62 291.94 118.92 290.01 119.26 C 290.21 118.55 290.63 117.11 290.84 116.39 Z" />
<path fill="#103852" fill-rule="evenodd" d=" M 323.31 116.57 C 326.22 115.83 329.68 115.88 332.06 117.97 C 336.77 121.57 336.97 129.59 332.30 133.31 C 327.74 137.34 319.42 135.76 317.20 129.92 C 314.81 124.76 317.60 117.90 323.31 116.57 Z M 322.41 119.43 C 326.63 116.53 332.17 120.34 332.49 125.04 C 333.38 129.03 330.28 133.60 325.98 133.27 C 319.56 132.90 317.01 122.84 322.41 119.43 Z" />
<path fill="#103852" fill-rule="evenodd" d=" M 338.68 116.38 C 340.01 116.37 341.35 116.36 342.68 116.36 C 345.91 121.26 349.54 125.89 352.87 130.73 C 352.94 125.92 353.07 121.09 352.45 116.31 C 353.66 116.34 354.87 116.37 356.08 116.39 C 355.17 122.67 355.41 129.05 355.89 135.36 C 354.79 135.33 353.70 135.31 352.61 135.29 C 349.68 130.82 346.26 126.72 343.27 122.30 C 343.20 126.63 343.13 130.98 343.61 135.31 C 342.77 135.32 341.08 135.33 340.24 135.34 C 340.76 130.05 340.63 124.73 340.65 119.43 C 339.98 118.41 339.33 117.40 338.68 116.38 Z" />
<path fill="#103852" fill-rule="evenodd" d=" M 196.24 117.02 C 199.21 115.82 202.80 115.70 205.56 117.49 C 210.83 120.82 211.34 129.48 206.38 133.32 C 202.34 136.85 195.38 136.10 192.31 131.66 C 188.82 126.98 190.43 119.00 196.24 117.02 Z M 196.44 119.47 C 199.92 117.00 204.92 119.17 206.09 123.12 C 208.18 127.40 205.16 133.84 199.94 133.22 C 193.58 132.71 191.29 122.97 196.44 119.47 Z" />
<path fill="#103852" fill-rule="evenodd" d=" M 272.00 135.30 C 275.67 129.15 278.33 122.48 281.62 116.12 C 284.84 122.52 287.45 129.24 291.27 135.32 C 289.84 135.30 288.42 135.30 286.99 135.29 C 286.41 133.28 285.70 131.31 284.93 129.37 C 282.60 129.40 280.27 129.41 277.94 129.42 C 277.32 131.36 276.75 133.32 276.26 135.29 C 275.20 135.30 273.07 135.30 272.00 135.30 Z M 279.05 126.89 C 279.85 125.13 280.65 123.37 281.48 121.62 C 282.24 123.37 282.98 125.13 283.71 126.90 C 282.16 126.90 280.60 126.90 279.05 126.89 Z" />
<path fill="#103852" fill-rule="evenodd" d=" M 308.47 116.38 C 309.44 116.37 311.36 116.34 312.33 116.32 C 311.57 122.62 311.58 129.02 312.32 135.31 C 311.34 135.31 309.39 135.30 308.42 135.30 C 309.13 129.02 309.12 122.66 308.47 116.38 Z" />
<path fill="#e79321" d=" M 74.41 120.18 C 78.25 123.29 82.09 126.77 87.09 128.01 C 86.55 127.89 85.48 127.64 84.95 127.52 C 79.85 133.98 73.26 139.11 67.15 144.58 C 66.68 143.93 65.74 142.64 65.27 142.00 C 65.78 142.47 66.79 143.41 67.29 143.88 C 68.10 140.22 69.56 136.77 70.84 133.27 C 72.09 129.97 72.86 126.42 74.93 123.49 C 74.84 122.37 74.64 121.27 74.41 120.18 Z" />
<path fill="#e79321" d=" M 113.58 126.77 C 116.16 125.55 118.50 123.93 120.99 122.56 C 121.77 122.42 123.32 122.14 124.09 122.00 C 127.54 129.52 130.47 137.26 133.94 144.77 C 127.23 138.69 119.94 133.24 113.58 126.77 Z" />
<path fill="#e79321" d=" M 94.36 129.60 C 98.16 129.80 101.98 129.80 105.75 129.31 C 104.23 137.47 101.53 145.35 99.09 153.27 C 98.08 145.28 95.36 137.60 94.36 129.60 Z" />
</svg>
