<?xml version="1.0" encoding="UTF-8" ?>
<!DOCTYPE svg PUBLIC "-//W3C//DTD SVG 1.1//EN" "http://www.w3.org/Graphics/SVG/1.1/DTD/svg11.dtd">
<svg width="960pt" height="642pt" viewBox="0 0 960 642" version="1.1" xmlns="http://www.w3.org/2000/svg">

<path fill="#f7993a" d=" M 79.35 55.41 C 127.07 55.39 174.80 55.32 222.52 55.44 C 222.68 70.46 222.61 85.50 222.55 100.52 C 192.02 100.68 161.48 100.55 130.95 100.59 C 129.71 100.47 128.57 100.72 127.52 101.35 C 127.46 144.65 127.69 187.96 127.40 231.26 C 113.27 231.46 99.14 231.19 85.01 231.29 C 83.11 231.27 81.15 231.48 79.36 230.75 C 79.28 191.18 79.36 151.61 79.32 112.04 C 79.27 105.69 79.55 99.34 78.75 93.03 C 78.97 80.49 78.24 67.92 79.35 55.41 Z" />
<path fill="#f7993a" d=" M 740.43 57.63 C 741.41 56.72 742.58 56.37 743.95 56.58 C 789.64 56.60 835.34 56.58 881.03 56.59 C 882.34 56.43 883.48 56.78 884.46 57.65 C 884.12 113.43 884.34 169.22 884.28 225.00 C 884.09 227.52 885.15 230.40 883.50 232.58 C 867.82 232.45 852.14 232.51 836.47 232.56 C 836.30 231.94 835.96 230.69 835.79 230.07 C 835.77 187.50 835.98 144.90 835.68 102.32 C 803.99 102.06 772.29 102.34 740.60 102.20 C 740.31 87.35 740.64 72.48 740.43 57.63 Z" />
<path fill="#242363" d=" M 242.68 131.32 C 242.54 129.44 242.51 127.55 242.66 125.68 C 251.53 125.93 260.42 125.70 269.30 125.77 C 269.24 127.62 269.22 129.47 269.20 131.32 C 266.88 131.23 264.56 131.22 262.25 131.30 C 262.26 144.02 262.20 156.73 262.28 169.45 C 258.06 169.38 253.85 169.39 249.63 169.44 C 249.72 156.72 249.68 144.00 249.64 131.28 C 247.32 131.21 245.00 131.22 242.68 131.32 Z" />
<path fill="#242363" d=" M 271.32 169.47 C 271.55 154.87 271.01 140.25 271.57 125.67 C 275.65 125.88 279.73 125.69 283.82 125.84 C 283.84 131.53 283.70 137.24 283.83 142.93 C 284.70 143.03 286.45 143.21 287.32 143.30 C 287.44 137.45 287.27 131.60 287.37 125.76 C 291.51 125.85 295.66 125.59 299.79 125.97 C 299.46 140.51 300.07 155.09 299.49 169.60 C 295.47 169.26 291.43 169.33 287.42 169.53 C 287.26 162.57 287.40 155.60 287.34 148.64 C 286.44 148.66 284.63 148.69 283.73 148.70 C 283.82 155.64 283.82 162.58 283.77 169.51 C 279.62 169.35 275.46 169.32 271.32 169.47 Z" />
<path fill="#242363" d=" M 302.45 169.54 C 302.39 154.94 302.19 140.30 302.57 125.72 C 310.53 125.73 318.51 125.97 326.47 125.60 C 326.83 127.41 326.78 129.27 326.81 131.11 C 322.77 131.50 318.68 130.81 314.67 131.51 C 314.93 135.44 314.72 139.37 314.80 143.29 C 318.40 143.17 322.01 143.10 325.61 143.31 C 325.61 145.12 325.61 146.93 325.61 148.74 C 322.00 148.73 318.38 148.67 314.77 148.66 C 314.76 153.74 314.86 158.81 314.74 163.89 C 318.78 163.97 322.82 163.88 326.86 163.87 C 326.90 165.73 326.93 167.58 326.94 169.43 C 318.77 169.44 310.61 169.20 302.45 169.54 Z" />
<path fill="#242363" d=" M 242.43 201.02 C 242.55 192.86 242.19 184.67 242.60 176.52 C 255.16 176.90 267.75 176.65 280.32 176.64 C 280.35 239.07 280.42 301.50 280.28 363.92 C 267.64 363.74 254.98 364.10 242.34 363.76 C 242.54 309.52 242.37 255.27 242.43 201.02 Z" />
<path fill="#242363" d=" M 287.06 176.64 C 301.43 176.76 315.80 176.70 330.16 176.67 C 337.18 204.76 344.17 232.88 351.42 260.90 C 351.72 232.81 351.45 204.69 351.54 176.59 C 362.07 176.82 372.60 176.70 383.13 176.65 C 382.60 195.42 383.15 214.22 382.91 233.00 C 382.94 276.63 382.90 320.25 382.96 363.87 C 370.00 363.89 357.04 363.90 344.08 363.88 C 335.67 330.92 327.32 297.94 318.62 265.08 C 318.37 298.06 318.83 331.08 318.40 364.07 C 307.99 363.59 297.56 364.10 287.14 363.81 C 287.05 301.42 287.20 239.03 287.06 176.64 Z" />
<path fill="#242363"  fill-rule="evenodd" d=" M 390.87 176.62 C 407.56 176.81 424.26 176.63 440.96 176.71 C 450.19 176.96 459.63 180.10 466.29 186.69 C 473.41 193.03 477.38 202.52 477.45 212.00 C 477.42 251.00 477.47 290.01 477.43 329.01 C 477.47 344.06 466.52 358.26 452.00 362.15 C 444.88 364.48 437.34 363.81 429.99 363.89 C 416.99 363.90 403.98 363.87 390.98 363.90 C 390.75 301.48 390.97 239.04 390.87 176.62 Z
  M 428.54 339.79 C 428.68 293.42 428.39 247.04 428.69 200.68 C 431.37 200.91 434.42 200.65 436.65 202.44 C 439.15 204.49 439.64 207.98 439.60 211.02 C 439.62 250.36 439.59 289.70 439.61 329.04 C 439.64 332.46 439.33 336.36 436.42 338.64 C 434.06 340.03 431.16 339.67 428.54 339.79 Z  " />
<path fill="#242363" d=" M 484.37 363.84 C 484.56 301.42 484.26 238.99 484.53 176.57 C 497.14 176.86 509.76 176.64 522.37 176.68 C 522.29 239.09 522.37 301.50 522.33 363.91 C 509.68 363.83 497.02 363.96 484.37 363.84 Z" />
<path fill="#242363" fill-rule="evenodd" d=" M 546.57 230.05 C 549.36 212.24 551.68 194.34 554.74 176.58 C 570.63 176.78 586.54 176.77 602.43 176.59 C 611.77 239.07 621.35 301.52 630.51 364.03 C 618.11 363.70 605.70 363.98 593.30 363.87 C 591.50 347.15 588.96 330.50 587.07 313.79 C 581.35 313.70 575.64 313.80 569.92 313.71 C 568.04 330.37 565.78 346.99 563.59 363.61 L 563.18 363.92 C 550.97 363.92 538.76 363.78 526.55 363.98 C 532.98 319.31 539.91 274.69 546.57 230.05 Z
    M 577.79 237.93 C 578.02 236.66 577.48 235.12 578.34 234.03 C 580.60 251.92 581.73 269.95 583.83 287.87 C 580.35 287.94 576.87 287.87 573.41 287.99 C 574.62 271.28 576.54 254.63 577.79 237.93 Z" />
<path fill="#242363" d=" M 636.85 176.58 C 651.21 176.89 665.58 176.56 679.94 176.74 C 687.02 205.13 694.05 233.55 701.42 261.86 C 701.01 234.94 701.37 208.00 701.21 181.08 C 701.16 179.54 701.22 178.01 701.44 176.50 C 711.88 177.03 722.36 176.43 732.81 176.80 C 732.59 239.14 732.81 301.49 732.70 363.83 C 719.76 364.03 706.80 363.72 693.86 363.98 C 687.84 340.39 681.75 316.82 675.69 293.24 C 673.28 283.53 670.51 273.91 668.46 264.11 C 668.00 297.36 668.52 330.64 668.22 363.90 C 657.84 363.79 647.38 364.05 637.04 363.80 C 636.51 355.60 637.02 347.22 636.84 338.95 C 636.85 284.82 636.83 230.70 636.85 176.58 Z" />
<path fill="#242363" d=" M 705.59 384.83 C 706.83 384.70 708.06 384.45 709.27 384.07 C 708.85 385.71 706.87 385.77 705.81 386.80 C 696.92 393.82 688.32 401.23 679.09 407.83 C 678.44 405.25 681.50 404.43 682.99 403.01 C 690.47 396.87 698.00 390.78 705.59 384.83 Z" />
<path fill="#242363" d=" M 706.10 388.03 C 709.08 387.07 712.06 386.11 715.02 385.06 C 714.91 385.40 714.70 386.10 714.59 386.45 C 707.14 390.80 700.07 395.78 693.52 401.39 C 687.94 405.33 682.55 409.53 677.13 413.68 C 678.19 411.06 680.38 409.17 682.41 407.32 C 686.82 403.75 691.39 400.38 695.83 396.84 C 699.33 394.00 703.43 391.77 706.10 388.03 Z" />
<path fill="#242363" fill-rule="evenodd" d=" M 360.61 386.83 C 374.10 385.59 388.61 384.91 401.15 390.95 C 408.53 394.19 413.44 402.03 413.35 410.06 C 413.35 437.72 413.36 465.37 413.35 493.02 C 413.51 499.32 409.93 505.37 404.57 508.59 C 393.22 515.97 378.99 516.41 365.90 515.59 C 356.26 514.65 345.81 512.30 338.89 505.03 C 334.64 500.45 334.21 493.93 334.57 488.01 C 334.56 462.01 334.58 436.02 334.56 410.03 C 334.55 404.11 336.67 397.94 341.32 394.08 C 346.73 389.59 353.77 387.75 360.61 386.83 Z
    M 368.76 404.84 C 371.33 402.53 375.14 403.28 378.24 403.78 C 378.83 404.79 379.87 405.72 379.77 407.01 C 379.85 436.62 379.74 466.24 379.81 495.85 C 377.13 499.31 370.91 499.21 368.13 495.92 C 368.22 466.91 368.18 437.91 368.15 408.90 C 368.24 407.54 367.88 406.01 368.76 404.84 Z" />
<path fill="#242363" d=" M 239.44 387.04 C 250.55 387.30 261.67 386.95 272.78 387.21 C 276.77 416.17 280.72 445.13 284.56 474.11 C 284.72 473.72 285.05 472.93 285.21 472.54 C 288.89 444.03 292.92 415.57 296.75 387.08 C 307.99 387.31 319.24 386.89 330.48 387.26 C 326.75 407.27 323.76 427.42 320.33 447.48 C 316.74 469.78 312.76 492.02 309.43 514.35 C 293.06 514.49 276.69 514.22 260.32 514.48 C 256.00 489.06 251.90 463.59 247.63 438.16 C 245.04 421.10 241.65 404.13 239.44 387.04 Z" />
<path fill="#242363" d=" M 419.37 387.25 C 443.82 387.00 468.29 387.11 492.75 387.20 C 492.77 392.66 492.74 398.12 492.77 403.58 C 486.35 403.42 479.92 403.70 473.50 403.41 C 473.21 440.43 473.38 477.46 473.42 514.49 C 461.88 514.30 450.33 514.30 438.80 514.48 C 438.98 477.54 438.81 440.59 438.89 403.64 C 432.38 403.38 425.87 403.57 419.37 403.58 C 419.48 398.14 419.53 392.69 419.37 387.25 Z" />
<path fill="#242363" d=" M 498.83 387.17 C 521.18 387.10 543.52 387.10 565.87 387.17 C 565.90 392.53 565.94 397.88 565.88 403.24 C 554.98 403.01 544.08 403.28 533.18 403.12 C 533.09 414.64 533.05 426.16 533.20 437.68 C 543.06 437.76 552.94 437.63 562.81 437.72 C 562.73 442.88 562.73 448.04 562.74 453.21 C 552.89 453.43 543.03 453.27 533.18 453.29 C 533.02 468.30 533.16 483.31 533.11 498.32 C 544.24 498.45 555.37 498.22 566.49 498.46 C 566.22 503.79 566.48 509.14 566.37 514.48 C 543.84 514.30 521.30 514.34 498.78 514.45 C 498.85 472.02 498.74 429.59 498.83 387.17 Z" />
<path fill="#242363" fill-rule="evenodd" d=" M 572.18 387.18 C 587.46 387.07 602.74 387.12 618.02 387.15 C 628.57 387.49 640.38 389.86 647.38 398.49 C 651.78 403.59 651.09 410.71 651.06 416.97 C 650.86 423.03 652.12 429.87 648.19 435.07 C 643.65 440.49 636.55 442.58 630.01 444.52 C 636.53 445.79 643.46 447.93 647.98 453.08 C 651.79 457.86 651.07 464.25 651.06 469.95 C 651.26 481.36 650.37 492.86 652.39 504.16 C 653.14 507.82 654.20 511.56 656.71 514.44 C 645.14 514.23 633.56 514.57 621.99 514.25 C 617.83 508.34 617.63 500.90 617.47 493.95 C 617.37 484.32 617.47 474.69 617.43 465.05 C 617.33 461.48 618.14 457.48 615.74 454.46 C 612.85 453.36 609.75 453.01 606.68 453.10 C 606.67 473.56 606.69 494.02 606.67 514.48 C 595.19 514.34 583.71 514.28 572.23 514.49 C 572.12 472.05 572.24 429.61 572.18 387.18 Z
    M 606.61 403.30 C 609.82 403.04 613.00 403.65 616.00 404.79 C 616.70 406.43 617.61 408.09 617.45 409.95 C 617.33 417.28 617.63 424.63 617.30 431.94 C 616.86 437.30 610.78 437.36 606.71 437.32 C 606.60 425.98 606.78 414.64 606.61 403.30 Z" />
<path fill="#242363" d=" M 683.47 400.23 C 687.16 395.17 691.93 390.83 697.10 387.31 C 697.57 387.26 698.51 387.15 698.98 387.10 C 694.69 391.84 689.29 395.46 684.70 399.90 L 683.47 400.23 Z" />
<path fill="#242363" d=" M 700.06 397.96 C 705.55 393.12 712.06 389.34 719.00 387.03 C 718.90 387.40 718.72 388.16 718.62 388.54 C 713.96 391.21 708.74 392.94 704.57 396.41 C 697.31 402.31 690.07 408.24 682.51 413.74 C 680.64 414.94 679.14 417.17 676.68 416.95 C 683.56 409.60 692.42 404.46 700.06 397.96 Z" />
<path fill="#242363" d=" M 720.43 389.52 C 721.37 389.34 723.62 388.06 723.71 389.80 C 721.13 391.00 718.39 391.78 715.63 392.42 C 716.38 390.49 718.76 390.29 720.43 389.52 Z" />
<path fill="#242363" d=" M 719.00 392.81 C 724.62 392.07 730.18 390.83 735.84 390.37 C 734.72 392.56 730.80 390.76 730.98 393.60 C 733.33 393.18 735.70 392.69 738.07 392.24 C 737.14 394.22 734.57 394.16 732.72 394.56 C 728.65 394.22 725.33 397.38 721.22 397.05 C 721.93 397.50 722.65 397.95 723.39 398.39 C 724.42 398.09 726.49 397.49 727.52 397.19 L 727.36 398.79 C 731.62 398.43 735.87 397.88 740.15 397.60 L 740.18 399.06 C 735.11 399.07 729.67 401.11 724.86 399.13 C 723.05 399.65 721.16 400.35 719.27 399.82 C 719.81 399.07 721.28 398.52 720.24 397.48 C 715.02 398.12 710.29 400.47 705.39 402.07 C 706.79 398.69 710.77 398.09 713.86 397.13 C 719.38 396.03 724.82 394.13 730.51 394.29 L 731.15 392.29 C 726.76 392.97 722.43 393.97 718.02 394.56 C 714.03 395.08 709.88 396.09 706.77 398.78 C 698.89 406.32 689.55 412.07 680.58 418.20 C 680.75 419.26 680.91 420.32 681.07 421.39 C 679.77 421.21 678.49 421.29 677.23 421.63 C 677.28 421.34 677.39 420.78 677.45 420.49 C 681.07 416.09 685.37 412.18 690.31 409.29 C 696.71 404.77 702.72 399.71 709.09 395.15 C 711.88 393.01 715.54 392.20 719.00 392.81 Z" />
<path fill="#242363" d=" M 739.17 392.31 C 741.06 391.73 743.01 391.34 744.98 391.11 C 744.87 393.77 741.64 391.99 740.12 393.26 C 739.88 393.02 739.41 392.55 739.17 392.31 Z" />
<path fill="#242363" d=" M 734.63 396.01 C 735.36 394.55 738.34 394.76 739.83 395.18 C 738.91 396.56 736.16 396.22 734.63 396.01 Z" />
<path fill="#242363" d=" M 728.75 397.09 C 729.39 395.51 732.37 395.65 733.88 396.01 C 732.79 397.10 730.30 397.54 728.75 397.09 Z" />
<path fill="#242363" d=" M 707.27 402.58 C 710.55 402.11 713.65 400.82 716.73 399.63 C 717.37 400.08 718.01 400.54 718.65 401.02 C 714.28 401.08 710.59 403.98 706.34 404.76 C 706.57 404.21 707.04 403.12 707.27 402.58 Z" />
<path fill="#242363" d=" M 710.11 404.78 C 717.86 401.67 726.40 399.94 734.71 401.30 C 734.62 401.55 734.44 402.06 734.35 402.31 C 726.77 402.93 718.77 402.19 711.87 406.07 C 704.97 408.15 699.27 412.53 693.49 416.64 C 687.16 420.16 680.93 423.88 674.58 427.34 C 674.27 427.18 673.66 426.85 673.36 426.69 C 677.25 424.05 681.34 421.54 685.74 419.86 C 684.60 419.29 683.45 418.75 682.34 418.17 C 690.87 413.50 698.28 406.99 706.54 401.84 C 706.31 403.06 706.04 404.27 705.73 405.47 C 698.15 408.36 692.59 414.83 685.20 418.16 C 685.85 418.51 686.51 418.86 687.18 419.21 C 687.55 417.63 689.35 417.34 690.49 416.49 C 697.21 412.86 702.43 406.53 710.11 404.78 Z" />
<path fill="#242363" d=" M 735.89 401.14 C 737.37 400.65 740.55 400.36 739.88 402.81 C 738.39 402.54 736.09 403.30 735.89 401.14 Z" />
<path fill="#242363" d=" M 740.69 401.24 C 742.80 402.20 747.16 401.55 746.96 404.69 C 745.46 404.00 743.82 403.70 742.19 403.73 L 742.42 405.07 C 744.54 405.81 746.55 407.33 748.75 407.63 C 749.04 407.20 749.61 406.33 749.89 405.90 C 751.50 406.71 753.18 407.37 754.80 408.19 C 753.42 408.37 752.14 408.13 750.96 407.45 C 750.23 408.05 750.22 408.93 750.65 409.71 C 746.00 408.96 741.78 406.55 737.08 406.13 C 733.38 405.85 729.81 404.33 726.07 404.91 C 720.73 405.02 715.83 407.22 711.02 409.29 C 700.51 414.54 691.18 421.85 680.76 427.25 C 680.73 427.87 680.66 429.12 680.63 429.74 C 691.73 422.78 702.30 414.81 714.26 409.30 C 719.23 406.93 724.78 405.75 730.29 405.76 C 730.48 406.08 730.87 406.71 731.06 407.03 C 729.46 407.11 727.87 407.18 726.29 407.25 C 726.04 407.86 725.54 409.06 725.29 409.66 C 724.25 407.97 722.27 407.82 720.55 408.32 C 714.26 410.82 708.11 413.74 702.40 417.40 C 702.26 417.87 702.00 418.83 701.87 419.31 C 705.20 417.44 708.53 414.56 712.11 413.83 C 712.36 414.10 712.84 414.62 713.08 414.88 L 714.73 414.08 L 714.63 416.84 C 714.01 416.76 712.76 416.59 712.14 416.50 C 704.28 418.96 697.81 424.09 690.94 428.40 C 684.06 431.33 679.60 437.82 672.86 440.90 C 673.65 438.20 676.82 437.40 678.10 435.01 C 676.36 435.69 674.82 436.70 673.36 437.83 C 673.01 437.75 672.30 437.57 671.95 437.48 C 672.97 436.56 674.13 435.86 675.42 435.38 C 675.32 434.32 674.85 433.55 674.01 433.07 C 676.17 431.99 678.08 430.27 680.57 429.97 C 680.00 429.47 679.45 428.98 678.89 428.50 C 677.60 429.37 676.31 430.19 674.95 430.94 C 674.93 430.53 674.89 429.71 674.87 429.30 C 682.57 423.74 691.73 420.37 698.90 414.03 C 702.58 410.94 707.08 409.14 711.52 407.42 C 715.92 405.84 720.35 403.81 725.15 404.14 C 730.85 404.46 736.63 403.24 742.23 404.91 C 741.85 404.00 741.08 402.16 740.69 401.24 Z" />
<path fill="#242363" d=" M 726.96 408.14 C 730.22 407.60 733.55 407.38 736.85 407.68 C 741.88 408.45 746.49 410.72 751.22 412.46 L 751.79 413.64 C 746.73 413.03 742.23 410.49 737.27 409.46 C 736.62 409.96 735.99 410.46 735.37 410.98 C 739.15 411.59 743.83 412.28 746.48 415.18 C 743.95 415.68 741.63 414.39 739.30 413.68 C 733.80 411.56 727.80 410.95 721.96 411.35 C 719.12 411.46 716.59 413.30 713.75 413.08 C 714.29 411.01 717.03 411.24 718.63 410.46 C 724.18 409.53 729.85 410.79 735.45 410.64 C 735.35 410.14 735.15 409.16 735.04 408.66 C 732.58 408.73 728.70 410.43 726.96 408.14 Z" />
<path fill="#178a44" d=" M 79.25 409.23 C 95.36 409.20 111.47 409.18 127.58 409.25 C 127.37 452.66 127.57 496.08 127.49 539.49 C 159.12 539.82 190.78 539.66 222.42 539.56 C 222.87 554.61 222.45 569.70 222.64 584.76 C 174.84 584.79 127.03 584.82 79.23 584.75 C 79.14 526.24 79.18 467.73 79.25 409.23 Z" />
<path fill="#178a44" d=" M 836.22 410.50 C 852.04 410.73 867.88 410.70 883.70 410.51 C 884.16 411.61 884.36 412.78 884.28 414.01 C 884.23 471.47 884.29 528.94 884.26 586.41 C 836.37 586.43 788.48 586.49 740.58 586.38 C 740.62 571.41 740.70 556.44 740.54 541.48 C 753.00 540.79 765.54 541.41 778.04 541.20 C 797.28 541.18 816.53 541.23 835.78 541.17 C 835.85 498.80 835.78 456.43 835.81 414.06 C 835.84 412.86 835.97 411.67 836.22 410.50 Z" />
<path fill="#242363" d=" M 717.81 413.04 C 722.88 412.96 727.95 413.03 733.02 413.32 C 737.54 414.10 741.95 415.60 746.01 417.76 C 747.21 417.53 748.43 417.35 749.67 417.23 L 749.73 416.04 C 748.98 416.04 747.48 416.03 746.73 416.03 C 747.14 412.31 750.79 416.64 752.78 416.43 C 752.53 416.73 752.01 417.34 751.76 417.64 C 750.95 417.61 749.33 417.55 748.52 417.53 C 749.89 421.12 756.03 420.20 757.89 423.65 C 756.00 423.97 754.39 422.89 752.76 422.15 C 743.99 418.15 734.84 414.10 725.00 414.22 L 725.23 415.81 C 736.10 416.10 746.57 420.15 755.75 425.72 C 753.41 426.89 751.59 424.17 749.47 423.55 C 744.34 421.97 739.64 418.94 734.17 418.62 C 730.17 417.88 726.10 417.20 722.08 418.18 C 720.02 418.71 716.41 417.29 715.57 419.88 C 720.97 419.55 726.50 418.22 731.84 419.79 C 740.14 420.27 747.73 424.22 754.76 428.36 C 754.80 428.71 754.89 429.41 754.93 429.75 C 745.81 424.61 735.70 420.39 725.05 420.50 C 722.37 420.40 719.71 421.18 717.05 420.78 C 716.92 421.23 716.66 422.12 716.53 422.56 C 732.31 419.92 748.06 426.26 760.59 435.46 C 760.65 435.82 760.78 436.55 760.84 436.91 C 757.55 435.42 754.90 432.88 751.63 431.38 C 747.88 429.27 743.57 428.18 740.16 425.51 C 739.25 426.21 738.69 427.20 738.10 428.15 C 737.59 427.99 736.56 427.68 736.05 427.52 C 731.09 426.00 725.83 426.46 720.83 425.52 C 726.62 424.82 732.41 426.19 738.18 426.61 C 738.12 426.04 737.98 424.91 737.92 424.34 C 732.91 423.99 727.95 423.02 722.93 422.89 C 720.47 422.77 718.62 424.69 716.35 425.29 C 714.55 425.99 712.22 426.02 711.29 428.00 C 711.85 428.09 712.95 428.26 713.51 428.35 C 712.87 429.64 712.23 430.94 711.64 432.26 C 712.26 432.25 713.52 432.22 714.15 432.21 C 710.67 433.66 707.23 435.25 704.03 437.24 C 703.79 437.93 703.31 439.31 703.07 440.01 C 706.91 437.82 711.17 436.16 714.64 433.40 C 714.15 434.31 713.19 436.13 712.70 437.04 C 713.80 436.79 716.00 436.29 717.10 436.04 C 716.84 436.45 716.30 437.28 716.03 437.70 C 713.21 438.19 711.16 440.52 708.50 441.16 L 707.78 440.90 C 708.22 439.00 711.14 438.45 712.31 436.77 C 708.70 437.79 706.10 440.79 702.57 441.93 C 703.01 442.44 703.45 442.97 703.90 443.49 C 705.06 442.61 706.00 440.51 707.78 440.90 L 708.00 441.50 C 707.43 441.97 706.28 442.91 705.71 443.38 L 706.52 443.66 C 703.10 444.34 700.77 447.47 698.34 449.78 C 695.53 453.54 692.06 456.67 688.49 459.68 C 683.83 463.55 680.93 469.03 676.42 473.04 C 675.63 471.23 677.70 469.83 678.36 468.30 C 681.98 461.05 689.81 457.64 694.89 451.62 L 694.99 450.29 L 695.57 450.53 L 696.05 449.95 L 696.70 449.60 L 696.89 448.90 L 697.63 448.64 L 697.78 447.89 L 698.54 447.76 L 698.84 447.03 L 699.58 446.80 L 699.73 446.09 C 700.42 445.57 701.79 444.54 702.47 444.02 C 701.07 443.58 699.90 444.76 699.73 446.09 L 699.07 446.32 L 698.84 447.03 L 698.09 447.23 L 697.78 447.89 L 697.11 448.19 L 696.89 448.90 L 696.19 449.22 L 696.05 449.95 L 695.41 449.87 L 694.99 450.29 L 693.62 451.56 L 692.55 450.52 C 694.53 448.64 696.84 446.98 698.14 444.51 C 698.35 444.44 698.78 444.28 698.99 444.21 L 698.47 444.05 L 698.14 444.51 C 693.29 448.16 688.70 452.14 683.82 455.74 C 679.83 458.58 677.54 463.02 674.25 466.52 C 674.86 466.40 676.10 466.16 676.72 466.04 C 680.13 459.15 686.81 455.19 692.55 450.52 L 693.48 451.62 C 691.48 453.64 689.29 455.46 686.96 457.07 C 681.32 461.00 678.50 467.89 673.16 471.99 C 673.04 470.30 674.18 468.98 675.40 467.96 C 674.95 467.50 674.50 467.06 674.07 466.62 C 673.33 468.06 672.37 469.37 671.44 470.69 C 671.25 470.33 670.87 469.60 670.68 469.24 C 672.68 465.99 675.34 463.19 677.18 459.84 C 674.32 460.76 673.40 465.33 670.19 464.76 C 671.88 462.47 674.49 460.92 675.75 458.34 C 675.81 458.24 675.91 458.03 675.96 457.93 C 677.98 461.25 681.51 456.35 680.73 453.97 C 681.26 453.63 681.81 453.30 682.38 452.99 C 682.62 453.21 683.12 453.63 683.36 453.84 C 687.16 450.80 691.55 448.47 694.84 444.82 L 695.25 444.50 L 695.31 443.99 C 696.24 443.29 697.18 442.63 698.15 441.96 C 697.86 440.80 697.59 439.64 697.33 438.49 C 697.01 438.71 696.37 439.17 696.05 439.39 C 692.65 441.44 689.40 443.74 686.38 446.32 C 684.93 447.46 683.53 448.91 681.53 448.97 C 683.37 445.35 687.36 443.88 690.21 441.25 C 693.53 438.22 696.59 434.89 700.24 432.24 C 705.08 428.24 710.21 423.63 716.72 422.94 C 715.68 422.23 714.50 421.55 713.19 421.73 L 713.16 421.03 C 713.59 420.82 714.45 420.42 714.88 420.21 C 714.30 420.29 713.14 420.45 712.56 420.53 L 712.75 419.28 C 713.17 419.30 714.02 419.32 714.44 419.33 C 716.33 416.11 721.39 416.37 724.83 415.82 L 724.88 414.13 C 722.54 414.00 718.68 416.43 717.81 413.04 Z" />
<path fill="#242363" d=" M 712.34 417.03 C 712.79 417.07 713.69 417.16 714.14 417.20 L 714.06 417.87 C 713.60 417.83 712.69 417.74 712.23 417.70 L 712.34 417.03 Z" />
<path fill="#242363" d=" M 704.12 421.01 C 706.83 420.00 709.37 417.58 712.23 417.70 L 712.94 418.34 C 711.58 418.91 710.24 419.50 708.91 420.09 C 709.36 420.50 710.28 421.30 710.74 421.71 L 708.99 422.00 L 710.12 424.21 C 709.32 423.94 707.74 423.38 706.94 423.11 C 707.48 423.41 708.54 424.00 709.07 424.30 C 705.17 427.10 701.54 430.23 697.89 433.33 L 697.24 432.85 L 696.65 432.40 C 697.38 431.76 698.13 431.13 698.88 430.51 C 698.47 430.33 697.64 429.98 697.22 429.80 L 696.50 429.44 C 697.35 428.87 698.22 428.31 699.09 427.75 C 701.66 426.05 704.16 424.22 706.39 422.08 C 703.81 423.53 699.65 424.55 699.09 427.75 L 698.44 426.61 C 689.16 432.36 681.05 439.78 671.98 445.79 C 672.87 443.19 675.30 441.67 677.64 440.50 C 681.56 436.37 686.12 432.92 690.76 429.64 L 690.94 428.40 L 691.56 429.44 C 695.68 426.54 699.97 423.86 704.12 421.01 Z" />

<path fill="#242363" fill-rule="evenodd" d=" M 716.35 425.29 C 718.62 424.69 720.47 422.77 722.93 422.89 C 727.95 423.02 732.91 423.99 737.92 424.34 C 737.98 424.91 738.12 426.04 738.18 426.61 C 732.41 426.19 726.62 424.82 720.83 425.52 C 725.83 426.46 731.09 426.00 736.05 427.52 C 735.55 427.83 734.54 428.45 734.04 428.76 C 733.72 428.89 733.06 429.16 732.73 429.29 C 734.25 430.04 736.84 430.15 737.57 431.74 C 732.57 431.15 727.34 430.58 722.22 431.27 C 721.19 431.72 720.15 432.14 719.11 432.54 C 719.88 433.06 722.32 432.46 722.57 433.64 C 721.46 433.99 720.34 434.24 719.20 434.40 C 720.57 434.71 721.94 435.02 723.33 435.36 C 723.61 434.85 724.19 433.85 724.47 433.34 C 727.56 435.13 731.42 435.57 734.80 434.37 C 735.09 434.44 735.68 434.57 735.97 434.64 C 739.03 436.17 742.14 437.64 745.03 439.50 C 745.26 439.86 745.73 440.59 745.97 440.96 C 745.50 440.93 744.56 440.86 744.09 440.82 C 743.08 440.59 742.08 440.38 741.08 440.19 C 740.46 439.27 739.85 438.37 739.24 437.46 C 737.96 437.41 736.70 437.34 735.44 437.38 C 737.34 438.67 739.28 439.90 741.18 441.21 C 739.78 441.17 738.38 441.13 736.99 441.07 C 736.69 440.63 736.07 439.76 735.76 439.32 C 731.96 439.38 728.13 438.97 724.37 439.55 C 727.46 439.88 730.67 439.27 733.68 440.30 C 736.04 441.10 738.44 441.80 740.96 441.88 C 741.74 442.87 741.76 444.81 743.27 445.01 C 743.60 444.52 744.26 443.55 744.59 443.06 L 746.27 444.54 C 746.77 444.62 747.77 444.76 748.27 444.84 C 748.47 445.42 748.89 446.58 749.10 447.16 C 748.57 447.23 747.51 447.39 746.98 447.46 C 741.34 445.36 736.07 442.15 730.07 441.10 C 725.60 441.59 721.06 441.76 716.65 442.66 C 722.77 442.59 728.99 443.50 734.42 446.51 C 732.44 447.92 730.09 446.12 727.98 445.92 C 728.72 446.52 729.48 447.12 730.26 447.71 C 729.48 447.85 727.92 448.11 727.14 448.24 C 727.82 448.83 728.52 449.42 729.23 450.02 C 728.47 450.08 726.97 450.22 726.21 450.29 C 726.90 450.81 727.58 451.34 728.28 451.89 C 724.04 452.10 719.76 451.42 715.53 452.40 C 715.97 451.07 716.99 450.39 718.60 450.35 C 720.86 451.73 722.61 449.29 724.67 448.72 C 723.56 448.24 722.31 448.05 721.16 448.42 C 720.49 449.32 719.64 449.97 718.60 450.35 C 717.91 450.21 716.52 449.93 715.83 449.78 L 714.63 449.17 C 718.14 447.10 722.35 448.43 726.15 447.46 C 720.77 446.51 715.10 447.37 710.73 450.79 C 706.08 453.29 703.92 458.37 699.92 461.57 C 699.89 460.87 699.83 459.47 699.80 458.77 C 693.08 467.92 686.87 477.44 680.09 486.54 C 679.53 485.95 678.98 485.36 678.44 484.77 C 683.10 479.81 687.32 474.43 690.51 468.40 C 686.09 473.06 682.66 478.58 678.44 483.44 L 678.21 483.00 L 678.01 483.40 C 677.07 483.48 675.17 483.64 674.22 483.71 C 674.71 483.18 675.68 482.11 676.16 481.57 L 675.35 479.93 C 675.26 479.75 675.08 479.39 674.99 479.22 C 682.18 473.05 685.66 462.47 695.28 459.39 C 694.78 461.87 692.17 462.84 690.47 464.37 C 685.55 467.90 683.09 473.65 678.90 477.88 C 677.47 479.25 676.42 480.94 676.09 482.91 C 680.97 477.48 685.11 471.41 689.98 465.99 C 690.24 466.63 690.76 467.90 691.02 468.54 C 692.49 466.68 693.33 464.46 694.58 462.47 C 696.77 459.81 699.25 457.39 701.61 454.88 C 701.80 455.40 702.19 456.44 702.39 456.95 C 703.29 455.47 704.17 453.96 704.99 452.43 C 706.17 452.63 706.94 452.06 707.30 450.69 C 707.49 450.53 707.86 450.21 708.04 450.05 C 709.52 449.89 710.75 448.66 711.16 447.25 C 712.45 447.30 714.14 447.53 714.92 446.20 C 715.42 445.93 716.41 445.38 716.90 445.11 C 716.41 445.38 715.42 445.93 714.92 446.20 C 714.07 445.95 713.23 445.67 712.43 445.37 C 713.60 445.04 714.79 444.77 716.00 444.55 C 713.90 443.13 710.75 444.95 708.41 445.36 C 707.94 446.24 707.49 447.13 707.04 448.02 C 704.03 448.73 702.50 452.12 699.40 452.79 C 699.85 451.95 700.73 450.27 701.18 449.43 C 701.40 449.26 701.84 448.92 702.06 448.75 C 702.22 448.61 702.54 448.35 702.70 448.22 C 702.95 448.00 703.45 447.57 703.70 447.36 C 705.34 446.72 707.23 445.96 707.86 444.15 C 712.41 442.23 716.80 439.51 721.90 439.51 C 721.57 439.39 720.89 439.16 720.56 439.05 L 719.83 437.95 C 718.56 437.81 717.29 437.73 716.03 437.70 C 716.30 437.28 716.84 436.45 717.10 436.04 C 716.00 436.29 713.80 436.79 712.70 437.04 C 713.19 436.13 714.15 434.31 714.64 433.40 C 715.12 433.33 716.08 433.18 716.56 433.11 L 716.68 432.27 C 716.17 432.55 715.15 433.12 714.64 433.40 C 711.17 436.16 706.91 437.82 703.07 440.01 C 703.31 439.31 703.79 437.93 704.03 437.24 C 707.23 435.25 710.67 433.66 714.15 432.21 C 719.90 430.48 725.71 428.78 731.76 428.41 C 729.12 428.22 726.47 428.24 723.84 428.51 L 723.54 426.12 C 721.41 427.88 719.21 429.57 716.74 430.83 C 715.86 431.27 715.00 431.73 714.15 432.21 C 713.52 432.22 712.26 432.25 711.64 432.26 C 712.23 430.94 712.87 429.64 713.51 428.35 C 712.95 428.26 711.85 428.09 711.29 428.00 C 712.22 426.02 714.55 425.99 716.35 425.29 Z" />
<path fill="#242363" d=" M 739.48 427.67 C 745.57 428.98 751.15 432.19 756.18 435.87 C 756.43 436.28 756.92 437.08 757.17 437.48 C 758.95 437.42 760.28 438.53 761.05 440.08 C 756.98 438.96 754.11 435.60 750.48 433.64 C 747.29 431.31 743.16 430.95 739.90 428.82 L 739.48 427.67 Z" />
<path fill="#242363" d=" M 732.73 429.29 C 733.06 429.16 733.72 428.89 734.04 428.76 C 738.06 428.86 741.49 431.42 745.20 432.73 C 749.83 434.39 753.68 437.46 757.54 440.43 C 757.59 440.78 757.69 441.47 757.74 441.82 C 755.97 441.32 754.22 440.53 753.01 439.12 C 750.84 436.41 747.38 435.46 744.58 433.61 L 743.80 434.38 C 743.74 432.63 741.60 432.33 740.37 431.73 C 739.73 431.95 739.21 432.32 738.82 432.85 C 740.45 433.39 742.12 433.89 743.80 434.38 C 744.21 434.60 745.04 435.05 745.45 435.27 L 744.98 436.06 C 743.59 437.09 741.94 434.68 740.53 434.54 L 740.14 435.59 L 739.61 434.53 C 734.92 432.50 729.39 430.58 724.37 432.34 C 724.69 433.61 726.92 432.86 727.95 433.11 C 730.32 432.86 732.61 433.51 734.80 434.37 C 731.42 435.57 727.56 435.13 724.47 433.34 C 724.19 433.85 723.61 434.85 723.33 435.36 C 721.94 435.02 720.57 434.71 719.20 434.40 C 720.34 434.24 721.46 433.99 722.57 433.64 C 722.32 432.46 719.88 433.06 719.11 432.54 C 720.15 432.14 721.19 431.72 722.22 431.27 C 727.34 430.58 732.57 431.15 737.57 431.74 C 736.84 430.15 734.25 430.04 732.73 429.29 Z" />
<path fill="#242363" d=" M 676.54 444.56 C 683.07 439.46 689.48 434.16 696.40 429.58 L 697.22 429.80 L 697.74 430.59 C 696.16 431.35 694.63 432.19 693.28 433.30 C 686.39 438.84 679.35 444.20 672.51 449.80 C 672.10 449.82 671.30 449.86 670.89 449.88 C 672.41 447.75 674.50 446.15 676.54 444.56 Z" />
<path fill="#242363" d=" M 677.56 447.37 C 683.49 441.99 690.28 437.69 696.34 432.48 L 697.24 432.85 L 697.22 433.69 C 691.18 438.79 684.92 443.69 678.65 448.45 L 678.04 448.06 L 677.56 447.37 Z" />
<path fill="#242363" d=" M 735.97 434.64 C 737.36 434.93 738.75 435.25 740.14 435.59 C 741.97 436.36 743.67 437.40 745.42 438.35 L 745.03 439.50 C 742.14 437.64 739.03 436.17 735.97 434.64 Z" />
<path fill="#242363" d=" M 744.98 436.06 L 745.85 435.33 C 750.75 438.52 755.22 442.53 759.10 446.84 C 758.73 446.76 758.00 446.61 757.63 446.53 C 753.38 443.02 749.34 439.12 744.43 436.55 L 744.98 436.06 Z" />
<path fill="#242363" d=" M 696.05 439.39 C 696.37 439.17 697.01 438.71 697.33 438.49 C 697.59 439.64 697.86 440.80 698.15 441.96 C 697.18 442.63 696.24 443.29 695.31 443.99 C 695.19 444.19 694.96 444.61 694.84 444.82 C 693.22 444.83 692.01 445.87 690.80 446.78 C 688.06 448.95 684.89 450.53 682.38 452.99 C 681.81 453.30 681.26 453.63 680.73 453.97 C 681.51 456.35 677.98 461.25 675.96 457.93 C 675.91 458.03 675.81 458.24 675.75 458.34 C 674.22 459.09 672.75 459.93 671.30 460.80 C 671.34 460.47 671.42 459.81 671.46 459.48 C 672.70 458.51 673.93 457.54 675.18 456.59 L 674.49 455.55 L 675.83 455.93 C 682.06 450.63 689.08 446.36 695.36 441.15 C 695.54 440.71 695.88 439.83 696.05 439.39 Z" />
<path fill="#242363" d=" M 707.18 443.33 C 710.13 441.84 713.27 440.71 716.03 438.85 C 717.53 438.89 719.04 438.95 720.56 439.05 C 720.89 439.16 721.57 439.39 721.90 439.51 C 716.80 439.51 712.41 442.23 707.86 444.15 L 707.18 443.33 Z" />
<path fill="#242363" d=" M 745.03 439.50 C 745.91 438.18 748.44 439.75 747.70 441.02 C 747.27 441.01 746.40 440.98 745.97 440.96 C 745.73 440.59 745.26 439.86 745.03 439.50 Z" />

<path fill="#242363" d=" M 716.65 442.66 C 721.06 441.76 725.60 441.59 730.07 441.10 C 736.07 442.15 741.34 445.36 746.98 447.46 C 748.09 448.25 749.15 449.41 750.64 449.47 C 750.26 448.89 749.49 447.74 749.10 447.16 C 749.50 446.96 750.29 446.56 750.69 446.36 C 750.08 445.98 748.87 445.22 748.27 444.84 C 747.94 444.33 747.28 443.31 746.96 442.81 C 747.50 442.79 748.57 442.76 749.11 442.74 C 749.37 444.48 751.64 444.88 752.00 446.64 L 750.25 446.85 C 753.31 450.27 758.43 452.28 760.00 456.88 C 756.80 455.80 755.17 452.40 752.69 450.29 C 752.34 450.38 751.64 450.55 751.29 450.64 C 752.60 452.12 753.54 454.44 755.74 454.76 C 757.52 457.87 760.50 460.00 762.71 462.77 C 762.37 462.79 761.70 462.83 761.36 462.85 C 758.62 460.55 756.16 457.95 753.63 455.45 C 746.64 447.41 736.02 442.45 725.40 442.26 C 731.25 444.52 737.68 445.43 743.03 448.89 C 745.69 450.41 747.79 452.75 750.58 454.06 C 750.00 454.51 749.42 454.97 748.86 455.42 C 744.63 451.57 739.66 448.70 734.42 446.51 C 728.99 443.50 722.77 442.59 716.65 442.66 Z" />

<path fill="#242363" d=" M 744.09 440.82 C 744.56 440.86 745.50 440.93 745.97 440.96 C 746.21 441.42 746.71 442.34 746.96 442.81 C 746.48 442.80 745.52 442.77 745.04 442.76 C 744.80 442.28 744.33 441.31 744.09 440.82 Z" />
<path fill="#242363" d=" M 747.70 441.02 C 748.94 440.51 751.37 441.42 750.73 443.09 C 750.33 443.00 749.52 442.83 749.11 442.74 C 748.76 442.31 748.06 441.45 747.70 441.02 Z" />


<path fill="#242363" d=" M 706.52 443.66 C 706.85 443.78 707.53 444.02 707.86 444.15 C 707.23 445.96 705.34 446.72 703.70 447.36 C 704.35 445.93 705.30 444.65 706.52 443.66 Z" />

<path fill="#242363" d=" M 714.92 446.20 C 715.42 445.93 716.41 445.38 716.90 445.11 C 716.41 445.38 715.42 445.93 714.92 446.20 Z" />

<path fill="#242363" d=" M 727.98 445.92 C 730.09 446.12 732.44 447.92 734.42 446.51 L 734.38 447.69 C 738.99 449.74 743.11 452.64 747.35 455.34 L 747.71 456.96 C 746.36 456.11 745.03 455.38 743.66 454.63 C 742.64 453.83 741.54 452.87 740.17 453.01 C 739.45 451.06 736.93 450.23 735.02 450.12 C 734.19 448.33 731.91 448.23 730.26 447.71 C 729.48 447.12 728.72 446.52 727.98 445.92 Z" />
<path fill="#242363" d=" M 753.48 446.16 C 754.81 445.26 757.43 447.13 756.91 448.70 C 755.64 448.88 753.44 447.52 753.48 446.16 Z" />
<path fill="#242363" d=" M 710.73 450.79 C 715.10 447.37 720.77 446.51 726.15 447.46 C 722.35 448.43 718.14 447.10 714.63 449.17 L 715.83 449.78 C 712.83 449.79 710.50 452.24 708.70 454.40 C 711.35 453.32 713.71 451.69 715.83 449.78 C 716.52 449.93 717.91 450.21 718.60 450.35 C 716.99 450.39 715.97 451.07 715.53 452.40 C 719.76 451.42 724.04 452.10 728.28 451.89 L 728.40 452.70 C 728.81 452.76 729.61 452.87 730.01 452.92 C 730.32 453.24 730.93 453.89 731.23 454.21 L 731.98 453.93 C 732.52 455.96 735.09 457.33 737.11 456.92 L 736.36 457.36 C 736.94 457.84 738.08 458.81 738.65 459.30 C 738.00 458.90 736.69 458.12 736.03 457.72 C 735.47 458.13 734.92 458.55 734.38 458.97 C 735.10 459.26 736.56 459.83 737.28 460.11 L 736.63 460.78 C 736.23 460.83 735.41 460.93 735.01 460.98 C 735.33 461.49 735.99 462.50 736.32 463.01 C 735.96 463.01 735.25 463.03 734.90 463.03 C 733.39 461.94 731.88 460.83 730.31 459.87 L 730.95 462.32 C 727.46 463.07 731.33 456.69 726.91 459.42 C 727.04 458.32 727.20 457.23 727.36 456.15 C 723.80 455.23 720.05 454.56 716.46 455.76 C 716.57 455.17 716.81 453.98 716.93 453.38 C 719.60 453.97 722.37 453.68 725.06 454.21 C 727.36 454.59 729.41 455.85 731.77 455.99 L 731.58 456.58 L 732.16 456.84 C 732.06 456.62 731.87 456.20 731.77 455.99 C 727.87 452.72 722.58 452.96 717.81 453.05 C 714.26 453.61 710.23 454.56 708.16 457.79 C 710.74 457.36 712.63 455.34 714.89 454.18 C 715.43 454.81 715.99 455.45 716.55 456.09 C 712.62 456.43 709.70 459.48 706.93 462.00 C 704.46 464.78 701.31 467.25 700.11 470.91 C 701.01 470.30 701.77 469.53 702.37 468.60 L 702.90 469.07 L 703.68 469.78 C 702.13 471.58 700.94 473.63 699.99 475.80 L 698.90 475.30 L 698.72 474.29 L 699.92 471.90 C 697.61 472.82 696.68 475.31 695.05 477.01 C 694.50 473.37 698.93 471.61 698.86 468.05 C 692.07 475.68 688.67 486.72 679.07 491.56 C 685.21 484.69 690.16 476.90 695.15 469.18 C 695.29 468.66 695.57 467.61 695.70 467.09 C 693.37 470.81 690.65 474.27 688.42 478.05 C 685.56 482.10 681.97 485.55 678.65 489.20 C 678.28 489.14 677.55 489.02 677.18 488.96 C 677.61 488.52 678.46 487.63 678.88 487.19 C 678.29 487.02 677.10 486.67 676.51 486.49 C 676.88 485.72 677.64 484.17 678.01 483.40 L 678.21 483.00 L 678.44 483.44 C 682.66 478.58 686.09 473.06 690.51 468.40 C 687.32 474.43 683.10 479.81 678.44 484.77 C 678.98 485.36 679.53 485.95 680.09 486.54 C 686.87 477.44 693.08 467.92 699.80 458.77 C 699.83 459.47 699.89 460.87 699.92 461.57 C 703.92 458.37 706.08 453.29 710.73 450.79 Z" />
<path fill="#242363" d=" M 670.14 454.76 C 671.30 451.47 675.30 450.20 677.36 447.45 L 678.04 448.06 L 678.37 448.83 C 674.93 449.87 673.43 453.53 670.14 454.76 Z" />
<path fill="#242363" d=" M 702.06 448.75 C 702.22 448.61 702.54 448.35 702.70 448.22 C 702.54 448.35 702.22 448.61 702.06 448.75 Z" />
<path fill="#242363" d=" M 699.40 452.79 C 702.50 452.12 704.03 448.73 707.04 448.02 C 706.79 449.18 706.01 449.97 704.68 450.39 L 705.51 450.73 C 704.85 451.12 703.52 451.89 702.86 452.28 C 703.39 452.32 704.45 452.39 704.99 452.43 C 704.17 453.96 703.29 455.47 702.39 456.95 C 702.19 456.44 701.80 455.40 701.61 454.88 C 699.25 457.39 696.77 459.81 694.58 462.47 C 693.33 464.46 692.49 466.68 691.02 468.54 C 690.76 467.90 690.24 466.63 689.98 465.99 C 685.11 471.41 680.97 477.48 676.09 482.91 C 676.42 480.94 677.47 479.25 678.90 477.88 C 683.09 473.65 685.55 467.90 690.47 464.37 C 692.17 462.84 694.78 461.87 695.28 459.39 C 685.66 462.47 682.18 473.05 674.99 479.22 C 675.08 479.39 675.26 479.75 675.35 479.93 L 674.06 480.77 C 673.81 478.93 675.38 477.52 676.28 476.09 C 680.23 471.09 683.82 465.70 688.56 461.40 C 692.81 458.42 695.58 453.87 699.57 450.60 L 698.34 449.78 C 699.05 449.69 700.47 449.51 701.18 449.43 C 700.73 450.27 699.85 451.95 699.40 452.79 Z" />
<path fill="#242363" d=" M 709.11 447.91 C 709.62 447.74 710.65 447.42 711.16 447.25 C 710.75 448.66 709.52 449.89 708.04 450.05 C 708.09 449.74 708.17 449.12 708.21 448.80 L 709.11 447.91 Z" />
<path fill="#242363" d=" M 727.14 448.24 C 727.92 448.11 729.48 447.85 730.26 447.71 C 730.44 449.76 733.32 450.46 735.02 450.12 C 735.31 450.53 735.90 451.34 736.19 451.75 C 734.48 452.42 732.77 450.92 731.03 450.90 C 730.58 450.68 729.68 450.24 729.23 450.02 C 728.52 449.42 727.82 448.83 727.14 448.24 Z" />
<path fill="#242363" d=" M 671.01 457.01 C 674.36 453.63 678.14 450.63 681.99 447.83 C 680.39 451.16 677.36 453.40 674.49 455.55 C 673.46 456.31 672.27 456.83 671.01 457.01 Z" />
<path fill="#242363" d=" M 701.18 449.43 C 701.40 449.26 701.84 448.92 702.06 448.75 C 701.84 448.92 701.40 449.26 701.18 449.43 Z" />
<path fill="#242363" d=" M 726.21 450.29 C 726.97 450.22 728.47 450.08 729.23 450.02 C 729.48 450.35 729.99 451.03 730.24 451.36 L 731.03 450.90 C 732.55 452.59 734.76 453.38 736.72 454.44 L 735.87 455.41 C 734.58 454.91 733.41 453.87 731.98 453.93 L 731.67 453.15 C 731.26 453.09 730.43 452.98 730.01 452.92 C 729.76 452.60 729.24 451.95 728.98 451.63 L 728.28 451.89 C 727.58 451.34 726.90 450.81 726.21 450.29 Z" />
<path fill="#242363" d=" M 705.51 450.73 C 705.96 450.72 706.85 450.70 707.30 450.69 C 706.94 452.06 706.17 452.63 704.99 452.43 C 705.12 452.00 705.38 451.15 705.51 450.73 Z" />
<path fill="#242363" d=" M 736.19 451.75 C 737.43 452.29 738.71 453.46 740.17 453.01 L 740.28 453.56 C 741.07 455.10 742.20 455.46 743.66 454.63 L 742.62 455.64 C 743.55 456.80 746.11 457.47 744.93 459.52 C 741.96 457.00 739.13 454.25 735.57 452.59 L 736.19 451.75 Z" />
<path fill="#242363" d=" M 735.87 455.41 C 737.23 454.66 738.24 455.05 738.90 456.58 L 738.54 457.12 C 738.18 457.07 737.46 456.97 737.11 456.92 C 736.80 456.55 736.18 455.79 735.87 455.41 Z" />
<path fill="#242363" d=" M 750.32 458.42 C 751.03 457.06 750.72 455.51 750.71 454.06 L 752.07 456.20 L 753.63 455.45 L 752.67 456.77 C 755.70 458.62 757.93 461.71 760.38 464.31 C 759.69 464.84 759.02 465.38 758.36 465.93 C 759.63 466.38 760.38 467.28 760.62 468.62 C 757.66 468.61 755.69 465.08 757.07 462.43 C 755.50 461.32 754.62 459.38 752.77 458.69 C 752.37 458.33 752.37 458.33 752.77 458.69 C 752.70 459.23 752.55 460.30 752.47 460.84 C 751.08 459.32 747.27 458.62 748.83 455.84 L 750.32 458.42 Z" />

<path fill="#242363" d=" M 702.19 468.08 C 706.46 463.19 711.40 458.32 717.94 456.77 C 718.72 456.91 720.28 457.19 721.06 457.32 C 719.21 458.72 716.78 458.70 714.74 459.66 C 710.13 461.81 706.98 465.96 703.60 469.60 L 702.90 469.07 L 702.19 468.08 Z" />
<path fill="#242363" d=" M 722.60 456.73 C 724.03 456.10 726.71 457.01 726.14 458.88 C 724.67 458.33 723.49 457.62 722.60 456.73 Z" />

<path fill="#242363" d=" M 738.54 457.12 L 739.73 456.78 C 741.90 459.04 745.63 460.62 746.23 463.82 C 745.38 462.80 744.34 462.13 743.12 461.83 C 742.17 459.78 740.09 458.64 738.54 457.12 Z" />
<path fill="#f7993a" d=" M 738.65 459.30 L 739.18 459.50 L 739.12 459.98 L 738.63 459.85 L 738.65 459.30 Z" />
<path fill="#242363" d=" M 745.92 459.05 C 748.02 458.31 750.35 459.41 751.01 461.63 L 748.08 461.00 C 749.19 463.04 752.12 464.19 752.01 466.71 C 751.43 466.45 750.28 465.92 749.70 465.65 C 749.31 465.33 749.31 465.33 749.70 465.65 C 751.05 468.08 753.52 469.75 754.38 472.48 C 751.35 471.13 749.66 467.94 747.63 465.47 C 746.07 466.42 744.56 466.39 743.08 465.39 C 746.53 469.20 749.91 473.09 752.62 477.52 C 752.78 478.06 753.08 479.14 753.24 479.68 C 752.60 479.25 751.34 478.39 750.71 477.97 C 750.60 477.72 750.37 477.22 750.26 476.97 L 750.14 477.58 L 750.71 477.97 C 751.02 478.77 751.65 480.39 751.97 481.20 C 752.70 480.97 753.13 480.46 753.24 479.68 L 753.57 478.46 C 753.84 478.90 754.38 479.77 754.65 480.20 C 754.19 481.37 752.10 482.63 754.18 483.78 C 754.71 484.40 754.82 485.11 754.52 485.91 C 752.19 482.51 749.02 479.43 747.99 475.35 C 747.52 475.96 747.06 476.58 746.62 477.21 C 747.25 478.11 748.50 479.90 749.12 480.80 C 748.15 480.72 746.21 480.55 745.24 480.46 C 744.38 478.76 742.82 477.14 743.07 475.11 C 743.49 475.22 744.32 475.45 744.74 475.57 C 745.74 475.10 746.67 474.41 747.77 474.16 C 748.07 474.39 748.69 474.86 748.99 475.09 C 748.95 473.31 747.29 472.43 746.47 471.08 C 746.55 471.49 746.72 472.33 746.80 472.75 L 744.27 472.79 C 745.86 468.98 741.10 466.71 739.70 463.64 L 738.43 463.94 L 738.29 463.29 L 737.81 463.14 C 737.52 462.55 736.93 461.37 736.63 460.78 C 739.32 461.02 740.82 463.77 743.03 465.04 C 742.28 463.92 740.79 461.69 740.04 460.58 L 743.12 461.83 C 743.46 463.06 744.05 464.17 744.90 465.16 C 745.62 464.99 746.06 464.55 746.23 463.82 L 746.64 462.63 C 747.16 463.94 748.20 464.55 749.76 464.46 C 749.01 463.75 747.52 462.33 746.77 461.62 L 747.80 460.46 C 747.33 460.10 746.39 459.40 745.92 459.05 Z" />
<path fill="#242363" d=" M 711.98 461.86 C 715.98 459.58 720.94 459.49 725.34 460.49 C 729.26 461.96 731.69 465.66 734.67 468.41 C 737.53 470.95 738.70 474.69 739.69 478.26 L 738.31 477.74 C 737.98 477.22 737.31 476.18 736.98 475.66 C 737.06 476.14 737.22 477.09 737.30 477.57 L 738.65 478.26 C 738.24 479.46 737.83 480.67 737.12 481.74 C 735.29 475.95 732.92 470.09 728.12 466.11 C 731.98 472.07 736.95 478.48 736.18 486.03 C 736.93 486.33 737.71 486.53 738.53 486.65 C 738.62 484.88 738.11 483.07 737.56 481.44 C 738.00 481.60 738.88 481.91 739.33 482.06 C 739.81 483.89 740.46 485.68 740.99 487.51 C 739.40 488.57 740.61 490.43 740.73 491.86 C 742.20 496.78 740.15 502.20 736.87 505.81 C 737.26 506.71 737.67 507.60 738.08 508.51 C 737.07 509.37 736.09 510.25 735.09 511.12 C 735.16 509.75 735.26 508.38 735.41 507.03 L 734.16 507.10 C 736.75 503.27 740.06 499.38 740.01 494.48 L 739.07 494.40 C 739.06 495.21 739.04 496.85 739.03 497.67 C 738.53 497.73 737.52 497.86 737.01 497.92 C 735.66 500.43 735.05 503.50 732.81 505.41 C 732.86 504.57 732.95 502.89 733.00 502.05 L 733.61 502.33 L 733.90 501.78 L 733.35 501.53 L 733.00 502.05 C 732.48 503.69 729.33 505.34 730.61 507.01 C 730.36 507.17 729.85 507.49 729.59 507.66 L 728.56 507.51 C 727.07 509.04 725.73 510.91 723.63 511.63 C 725.04 508.61 727.84 506.57 729.88 503.98 C 728.29 504.57 727.13 505.84 725.86 506.89 L 725.31 504.27 L 727.12 504.90 L 725.92 503.06 L 727.66 503.61 L 727.32 502.24 C 729.42 503.66 729.46 500.17 730.50 499.39 L 731.00 500.49 C 731.10 500.85 731.29 501.56 731.39 501.91 C 732.82 501.31 733.67 499.51 733.09 498.04 C 732.08 498.54 731.38 499.36 731.00 500.49 C 730.31 498.15 732.22 495.54 734.36 494.60 C 734.34 495.34 734.31 496.82 734.29 497.56 C 737.57 496.16 734.67 493.51 732.33 493.44 C 733.25 491.34 732.66 489.14 731.84 487.13 C 732.24 480.67 729.31 474.68 725.72 469.52 C 723.48 468.68 721.39 467.44 719.03 467.00 C 717.19 467.51 715.50 468.51 714.11 469.81 C 716.52 469.13 719.26 467.67 721.57 469.48 C 723.64 471.79 727.01 472.84 728.13 475.97 C 730.08 481.35 731.88 487.09 731.18 492.83 C 730.70 492.37 729.74 491.43 729.26 490.96 C 729.21 491.77 729.10 493.40 729.05 494.21 C 729.55 494.21 730.57 494.23 731.07 494.23 C 730.61 497.29 729.66 500.82 726.72 502.51 C 727.22 501.06 728.21 498.17 728.70 496.73 C 727.95 497.72 726.44 499.71 725.69 500.70 C 725.91 499.52 726.35 497.15 726.56 495.97 C 721.88 502.21 717.36 510.38 709.12 512.22 C 709.54 513.67 709.02 514.61 707.57 515.03 C 707.75 516.02 708.11 517.59 706.55 517.31 C 705.63 516.68 704.80 515.96 703.96 515.28 C 704.43 514.81 705.38 513.88 705.86 513.41 C 706.39 513.51 707.44 513.71 707.97 513.81 C 707.47 513.43 706.47 512.68 705.97 512.30 C 709.72 511.88 712.38 509.03 715.57 507.33 C 717.12 506.58 717.50 504.82 718.29 503.45 C 721.08 501.73 721.80 498.30 723.16 495.53 C 723.50 495.50 724.19 495.43 724.53 495.39 C 725.41 492.71 726.89 489.92 725.99 487.04 C 725.38 485.20 725.48 483.31 725.49 481.43 C 724.52 478.95 723.04 476.70 721.58 474.50 C 720.38 474.63 719.21 474.52 718.06 474.18 C 717.53 474.52 715.34 475.54 716.87 476.04 C 719.07 476.65 721.41 476.85 723.42 478.08 C 723.74 482.06 723.84 486.05 724.45 490.00 C 723.80 494.03 721.72 497.89 718.73 500.68 C 717.22 502.22 715.38 503.99 715.78 506.38 C 715.20 506.37 714.02 506.35 713.44 506.34 C 711.05 508.82 708.12 510.70 704.87 511.85 L 705.58 510.33 C 709.95 508.01 712.99 504.06 716.26 500.47 C 717.16 499.49 717.63 498.22 718.07 496.99 C 716.65 497.45 716.05 498.84 715.23 499.94 C 713.09 503.15 710.11 505.70 706.99 507.92 C 705.31 509.13 703.03 509.48 701.69 511.13 C 702.56 510.96 704.30 510.61 705.17 510.44 C 704.86 513.07 701.64 512.31 699.88 513.11 C 700.76 512.01 701.89 511.03 701.48 509.48 C 706.26 506.93 710.42 503.28 713.78 499.05 C 715.09 497.21 715.58 492.85 718.73 494.72 C 719.61 492.54 720.73 490.47 721.67 488.31 C 719.02 488.72 719.95 493.47 716.75 493.56 C 717.33 490.64 718.51 487.87 718.86 484.90 C 718.62 485.15 718.15 485.65 717.92 485.90 C 716.22 491.10 714.79 496.71 710.79 500.71 C 707.75 503.69 704.60 506.78 700.66 508.52 L 700.04 508.12 L 699.55 507.48 C 703.43 505.67 706.57 502.59 709.71 499.74 C 711.85 496.04 714.20 492.23 715.02 487.99 C 714.58 488.71 713.70 490.16 713.26 490.88 C 713.07 490.19 712.70 488.80 712.52 488.11 C 714.70 484.89 715.33 478.85 720.45 479.52 C 720.59 481.05 720.95 482.57 721.61 483.97 C 722.51 481.66 721.78 478.50 718.94 478.25 C 716.09 478.65 715.23 481.73 713.89 483.82 C 712.64 486.22 710.76 488.22 709.63 490.68 C 707.27 495.86 703.30 500.19 698.77 503.55 C 696.35 505.08 693.62 506.26 690.73 506.32 C 690.58 506.16 690.27 505.84 690.11 505.68 C 695.53 504.82 700.64 501.04 702.85 496.09 C 698.69 500.49 693.17 505.13 686.67 503.99 C 686.92 502.49 687.88 501.04 689.38 500.54 C 689.34 501.19 689.27 502.49 689.23 503.14 C 694.37 501.71 698.32 498.08 701.72 494.15 C 697.62 496.28 694.75 500.96 689.73 501.30 C 690.82 499.96 692.45 499.27 693.82 498.29 C 693.23 498.08 692.04 497.68 691.44 497.48 C 692.53 495.10 694.40 493.24 695.73 491.02 C 692.54 493.12 689.98 496.86 685.87 497.04 C 687.70 493.58 693.84 492.96 693.57 488.22 C 690.61 490.18 688.67 493.94 684.74 494.31 C 686.43 490.73 691.31 489.43 691.88 485.10 C 688.57 488.63 684.89 492.07 680.27 493.77 C 683.25 490.54 686.74 487.80 689.22 484.12 C 690.93 482.10 692.04 479.50 694.29 477.99 C 694.79 480.21 693.05 482.06 693.12 484.27 C 695.15 481.34 696.50 477.98 698.23 474.86 L 698.90 475.30 L 699.77 475.88 C 698.81 476.85 695.55 479.22 699.40 478.95 C 697.25 481.51 695.61 484.49 693.18 486.80 C 695.35 486.39 695.97 483.88 697.68 482.75 C 699.83 481.18 701.36 478.89 702.25 476.41 C 703.09 476.90 703.94 477.39 704.80 477.90 C 700.93 480.79 700.27 485.87 699.30 490.25 C 697.83 492.50 696.02 494.61 693.72 496.04 C 694.09 496.51 694.47 496.98 694.86 497.47 C 696.90 494.66 699.59 492.41 701.58 489.55 C 700.84 488.46 700.71 487.33 701.21 486.16 C 702.48 482.31 704.30 478.62 706.75 475.39 C 706.32 475.79 705.45 476.59 705.02 476.99 C 704.40 476.09 703.79 475.21 703.19 474.33 C 702.88 474.66 702.26 475.34 701.95 475.68 L 701.27 474.29 C 704.47 469.86 707.63 465.27 711.98 461.86 Z" />
<path fill="#242363" d=" M 750.99 461.99 C 753.04 462.65 755.00 464.65 754.89 466.92 C 753.41 465.43 751.98 463.84 750.99 461.99 Z" />
<path fill="#242363" d=" M 731.52 462.75 C 732.36 462.82 734.05 462.96 734.90 463.03 L 733.95 463.58 C 735.75 464.77 737.25 466.32 738.62 468.00 C 738.06 468.46 737.51 468.93 736.97 469.40 C 736.25 466.51 733.17 465.09 731.52 462.75 Z" />
<path fill="#242363" d=" M 736.32 463.01 C 736.69 463.04 737.44 463.11 737.81 463.14 C 737.97 463.34 738.28 463.74 738.43 463.94 C 738.54 464.43 738.76 465.41 738.87 465.91 L 738.31 466.06 C 737.33 465.46 735.93 464.22 736.32 463.01 Z" />
<path fill="#242363" d=" M 738.87 465.91 L 739.45 465.00 C 740.56 467.24 743.76 468.84 743.27 471.60 C 741.24 470.52 740.46 467.94 738.57 466.58 L 738.87 465.91 Z" />
<path fill="#242363" d=" M 738.61 471.27 C 739.03 470.57 739.47 469.89 739.93 469.22 C 741.13 471.25 742.64 473.08 743.88 475.09 L 743.07 475.11 C 742.53 474.90 741.46 474.50 740.93 474.29 C 743.30 480.24 747.99 485.31 748.95 491.74 C 747.43 490.02 747.50 486.75 744.97 486.17 L 746.57 489.29 C 746.07 489.21 745.08 489.05 744.59 488.97 C 743.24 485.58 743.41 481.78 741.54 478.58 C 740.20 476.29 739.58 473.70 738.61 471.27 Z" />
<path fill="#242363" d=" M 743.27 471.60 C 743.86 472.24 743.86 472.24 743.27 471.60 Z" />
<path fill="#242363" d=" M 756.01 471.95 C 758.33 472.24 759.45 474.79 760.09 476.79 C 759.72 476.59 758.99 476.20 758.63 476.00 L 758.17 477.11 C 759.38 474.94 756.80 473.66 756.01 471.95 Z" />
<path fill="#242363" d=" M 744.23 473.68 C 744.82 474.02 744.82 474.02 744.23 473.68 Z" />
<path fill="#242363" d=" M 754.99 474.06 C 756.52 473.85 757.15 476.19 758.17 477.11 C 757.66 477.02 756.64 476.85 756.13 476.77 C 755.91 476.55 755.49 476.12 755.28 475.90 C 755.21 475.44 755.06 474.52 754.99 474.06 Z" />
<path fill="#242363" d=" M 700.04 477.69 C 699.04 476.63 700.89 474.09 701.95 475.68 L 702.05 476.27 L 702.25 476.41 C 701.70 476.73 700.60 477.37 700.04 477.69 Z" />
<path fill="#242363" d=" M 753.26 474.86 C 753.52 475.20 754.03 475.90 754.29 476.24 L 755.28 475.90 L 755.42 476.64 L 756.13 476.77 L 755.77 477.65 C 756.16 478.27 756.92 479.52 757.30 480.14 L 758.08 479.60 L 758.03 480.73 L 759.06 481.28 L 758.84 481.76 C 758.34 481.85 757.34 482.02 756.83 482.10 C 756.80 479.86 754.40 478.71 753.78 476.69 L 752.62 477.52 C 752.78 476.85 753.10 475.52 753.26 474.86 Z" />

<path fill="#242363" d=" M 758.08 479.60 C 757.76 478.35 758.15 477.86 759.26 478.15 C 759.35 478.61 759.53 479.54 759.63 480.00 C 759.24 479.90 758.47 479.70 758.08 479.60 Z" />
<path fill="#242363" d=" M 740.10 479.75 C 741.68 479.68 742.10 482.35 741.75 483.58 C 740.35 483.42 739.48 480.97 740.10 479.75 Z" />
<path fill="#242363" d=" M 748.86 481.81 C 750.40 481.50 752.09 484.00 751.66 485.44 C 749.97 485.63 748.11 483.46 748.86 481.81 Z" />
<path fill="#242363" d=" M 755.29 482.16 C 755.68 482.14 756.45 482.12 756.83 482.10 C 757.57 482.83 759.97 484.69 758.34 485.53 C 757.14 484.87 755.02 483.63 755.29 482.16 Z" />
<path fill="#242363" d=" M 743.39 490.43 C 742.31 489.08 744.82 488.59 745.19 489.84 C 744.93 491.19 745.67 492.49 745.56 493.76 C 743.61 494.44 744.24 491.35 743.39 490.43 Z" />
<path fill="#242363" d=" M 746.09 490.14 C 746.39 490.17 746.99 490.23 747.29 490.26 L 746.99 491.31 L 746.08 491.61 C 746.09 491.24 746.09 490.51 746.09 490.14 Z" />
<path fill="#242363" d=" M 710.97 490.42 C 711.50 490.99 712.03 491.56 712.57 492.14 C 710.08 498.38 704.84 502.77 699.31 506.27 C 696.70 507.49 694.08 509.40 691.05 508.71 C 692.47 507.87 693.97 507.08 695.68 507.11 C 696.50 505.74 698.91 505.40 698.77 503.55 L 699.91 503.85 C 704.34 500.11 708.91 496.03 710.97 490.42 Z" />
<path fill="#242363" d=" M 747.25 493.99 C 749.25 494.26 748.42 496.65 748.62 498.03 C 748.75 500.45 747.80 502.71 746.80 504.86 C 746.20 504.03 745.62 503.20 745.04 502.38 C 744.92 503.93 744.29 505.17 743.14 506.10 C 742.96 504.11 743.63 502.21 744.31 500.38 C 743.89 499.66 743.47 498.95 743.05 498.26 C 743.40 501.03 741.85 503.41 740.08 505.33 L 741.58 505.80 C 741.35 506.29 740.89 507.27 740.66 507.76 C 739.69 507.02 738.48 505.74 739.45 504.50 C 741.24 501.67 742.90 498.56 742.46 495.08 C 743.58 495.54 743.91 496.51 743.46 497.98 C 743.95 497.97 744.93 497.94 745.42 497.92 C 745.50 497.40 745.68 496.36 745.77 495.84 C 746.39 498.09 745.69 500.35 745.30 502.58 C 745.82 502.35 746.85 501.90 747.37 501.67 C 746.97 499.12 747.13 496.55 747.25 493.99 Z" />
<path fill="#242363" d=" M 687.46 498.05 C 690.92 496.94 687.10 502.36 685.32 500.64 C 684.76 499.30 686.64 498.66 687.46 498.05 Z" />
<path fill="#242363" d=" M 720.79 505.84 C 722.24 504.23 723.15 501.69 725.52 501.29 C 723.63 506.53 719.26 511.42 713.86 513.02 C 715.42 509.96 718.90 508.64 720.79 505.84 Z" />
<path fill="#242363" d=" M 732.81 505.41 C 732.09 505.91 732.09 505.91 732.81 505.41 Z" />
<path fill="#242363" d=" M 723.09 508.92 C 722.86 507.59 723.43 506.99 724.80 507.13 C 724.54 507.63 724.03 508.62 723.77 509.12 L 723.09 508.92 Z" />
<path fill="#242363" d=" M 730.61 507.01 C 730.90 506.95 731.48 506.83 731.77 506.77 C 731.90 507.98 730.22 510.33 729.00 509.77 C 729.15 509.24 729.44 508.18 729.59 507.66 C 729.85 507.49 730.36 507.17 730.61 507.01 Z" />
<path fill="#242363" d=" M 695.15 510.19 C 695.99 508.71 698.37 507.69 700.04 508.12 L 700.04 508.65 C 698.86 509.56 696.46 511.38 695.15 510.19 Z" />
<path fill="#242363" d=" M 722.47 508.75 L 723.09 508.92 C 723.62 510.27 721.80 512.20 720.43 511.80 C 720.28 510.59 721.51 509.39 722.47 508.75 Z" />
<path fill="#242363" d=" M 730.29 511.79 C 729.99 510.32 732.27 507.86 733.82 508.88 C 733.87 510.51 731.55 511.33 730.29 511.79 Z" />
<path fill="#242363" d=" M 703.34 513.36 C 705.62 511.34 705.57 515.11 703.23 514.06 L 703.34 513.36 Z" />

</svg>
